<svg id="Capa_1" data-name="Capa 1" xmlns="http://www.w3.org/2000/svg" viewBox="0 0 100 100"><defs><style>.cls-1{fill:#fff;}</style></defs><path class="cls-1" d="M15.79,18.3c1.59-.48,3.17-1.36,4.76-1.37,12.11-.12,24.22-.07,36.34-.06,3.79,0,4.8,1.71,3.12,5a5.76,5.76,0,0,0-.47,2.49c0,3.73,0,7.46,0,11.28-2.3.46-3.47,0-3.36-2.48.15-3.3,0-6.61,0-10.13H20.52V55.89H56.19V48.13c2.62-.32,3.41.62,3.38,3-.1,7.79,0,7.79-7.73,7.8H48.36c.55,2.2,1,4.11,1.5,6,1.13,4.17,2.2,8.36,3.5,12.48.68,2.18.58,4-1,5.72H49.26a34.17,34.17,0,0,1-2-4.38C45.57,72.89,43.9,67,42.38,61.06c-.43-1.7-1.19-2.33-2.86-2.12a9.72,9.72,0,0,1-2.35,0c-1.69-.18-2.37.51-2.81,2.2-1.56,6.1-3.3,12.16-5.09,18.2a22.22,22.22,0,0,1-2,3.81H24.16c-1.48-1.84-1.41-3.77-.75-6,1.78-5.93,3.34-11.93,5.07-18.21-2.79,0-5.31-.15-7.8,0s-3.31-.67-3.28-3.21c.13-10.34.05-20.69.06-31,0-1.39.14-2.84-1.67-3.31Z"/><path class="cls-1" d="M63.9,83.15c-.48-1.49-1.41-3-1.38-4.46.22-9.92.62-19.83,1-29.74C63.61,47,63.31,46,61,45.7c-4.95-.74-9.83-2-14.74-3-.51-.1-1-.31-1.5-.43-1.82-.4-2.79-1.66-2.41-3.37a3,3,0,0,1,3.91-2.45c5,1,10,2.08,15,3a45.22,45.22,0,0,0,4.65.48c1.83.15,3,.8,2.58,2.94a44.6,44.6,0,0,0-.89,6.16,6.75,6.75,0,0,0,1,3.19,2,2,0,0,0,1.69.15,5.62,5.62,0,0,0,1-2.88,48.93,48.93,0,0,0-.9-6.68c-.32-1.65.26-2.52,1.86-2.74,4-.55,5.82.42,6.79,3.5,1.27,4,3.07,7.91,4.66,11.85.81,2,.79,3.79-1.45,4.83-1.72.79-3.31-.22-4.32-2.59A16.45,16.45,0,0,0,76,54.1c0,4.62-.1,9.24,0,13.85.11,3.82.68,7.64.67,11.45,0,1.25-1.19,2.5-1.83,3.75H72.27c-.65-1.62-1.64-3.19-1.87-4.86-.46-3.29-.49-6.64-.7-10l-.72,0a38.89,38.89,0,0,1,0,5.4c-.45,3.16.31,6.59-1.9,9.4Z"/><path class="cls-1" d="M69.62,38.56A5.27,5.27,0,0,1,64,33.38a5.51,5.51,0,0,1,5.35-5.52A5.6,5.6,0,0,1,75,33.15,5.34,5.34,0,0,1,69.62,38.56Z"/><path class="cls-1" d="M32.91,39.46c0,3.56.11,7.13-.07,10.68-.05.85-1.05,1.64-1.6,2.46-.49-.81-1.37-1.62-1.38-2.44q-.16-10.81,0-21.63c0-.75,1-1.48,1.51-2.23.51.74,1.43,1.46,1.46,2.22C33,32.16,32.91,35.81,32.91,39.46Z"/><path class="cls-1" d="M36.85,42.32c0-2.6-.12-5.21.07-7.8,0-.81.93-1.55,1.44-2.33.5.78,1.43,1.55,1.45,2.33q.18,7.95,0,15.89c0,.74-.85,1.46-1.31,2.18-.55-.73-1.51-1.43-1.57-2.2C36.73,47.72,36.85,45,36.85,42.32Z"/><path class="cls-1" d="M22.74,44.7a54.15,54.15,0,0,1,.07-6c.08-.7,1-1.3,1.59-1.95.54.59,1.52,1.16,1.54,1.77.14,4.07.14,8.16,0,12.23,0,.63-1,1.23-1.51,1.84-.56-.64-1.55-1.24-1.62-1.94A51.65,51.65,0,0,1,22.74,44.7Z"/></svg>