<?xml version="1.0" encoding="utf-8"?>
<!-- Generator: Adobe Illustrator 25.0.0, SVG Export Plug-In . SVG Version: 6.00 Build 0)  -->
<svg version="1.1" id="Capa_1" xmlns="http://www.w3.org/2000/svg" xmlns:xlink="http://www.w3.org/1999/xlink" x="0px" y="0px"
	 viewBox="0 0 69.9 63.1" style="enable-background:new 0 0 69.9 63.1;" xml:space="preserve">
<style type="text/css">
	.st0{fill:#FFFFFF;}
</style>
<g>
	<g>
		<path class="st0" d="M41.3,42.7c-4.6,0-9.2,0-13.8,0c-2.6,0-4.8-0.9-6.1-3.3c-0.5-0.9-0.6-2.1-1-3.1c-2.1-7.1-4.3-14.2-6.4-21.4
			c-0.6-2.1-1.3-4.3-1.9-6.5c-0.2-0.7-0.5-1-1.3-1c-2,0.1-4.1,0-6.1,0c-1.4,0-2.5-0.6-3-1.9C1.3,4.4,1.4,3.2,2.3,2.4
			c0.6-0.5,1.6-1,2.4-1c2.9-0.1,5.9-0.1,8.9,0c2.1,0,3,0.8,3.6,2.7c3.2,10.5,6.3,21,9.4,31.6c0.3,0.9,0.7,1.1,1.6,1.1
			c6.1-0.1,12.1-0.1,18.2-0.1c2.8,0,5.5-0.1,8.3-0.1c0.9,0,1.2-0.2,1.5-1.1c1.5-5.5,3.1-11.1,4.7-16.6c0.5-1.8,0.5-1.8-1.4-1.8
			c-7.5,0-15,0-22.6,0c-1.3,0-2.3-0.4-2.9-1.6c-0.6-1.1-0.5-2.1,0.1-3.1c0.7-1,1.7-1.4,3-1.4c8.9,0,17.8,0,26.7,0c0.6,0,1.1,0,1.7,0
			c2.2,0.1,3.5,1.9,2.9,4.1c-1.9,6.7-3.8,13.4-5.7,20.1c-0.2,0.7-0.4,1.4-0.6,2.2c-0.7,3.6-3,5.4-6.7,5.4
			C50.6,42.7,46,42.7,41.3,42.7z"/>
		<path class="st0" d="M65.1,55.7c0,3.4-2.8,6.1-6.2,6.2c-3.5,0-6.3-2.8-6.3-6.3c0-3.4,2.8-6.2,6.3-6.2
			C62.5,49.4,65.2,52.1,65.1,55.7z"/>
		<path class="st0" d="M24,49.4c3.6,0.2,6.1,3,6,6.5c-0.2,3.4-3.1,6.1-6.5,5.9c-3.4-0.2-6.1-3.1-6-6.5C17.6,51.9,20.5,49.3,24,49.4z
			"/>
	</g>
</g>
</svg>
