<?xml version="1.0" encoding="utf-8"?>
<!-- Generator: Adobe Illustrator 25.0.0, SVG Export Plug-In . SVG Version: 6.00 Build 0)  -->
<svg version="1.1" id="Capa_1" xmlns="http://www.w3.org/2000/svg" xmlns:xlink="http://www.w3.org/1999/xlink" x="0px" y="0px"
	 viewBox="0 0 800 800" style="enable-background:new 0 0 800 800;" xml:space="preserve">
<style type="text/css">
	.st0{fill:#F7AA00;}
</style>
<g>
	<g>
		<g>
			<path class="st0" d="M331.9,373.2c-24.5,0-44.4-22.9-44.4-51.1c0-28.1,19.9-51.1,44.4-51.1s44.4,22.9,44.4,51.1
				C376.4,350.3,356.4,373.2,331.9,373.2z M331.9,303.4c-8.7,0-15.8,8.4-15.8,18.8c0,10.3,7.1,18.8,15.8,18.8s15.8-8.4,15.8-18.8
				C347.8,311.8,340.7,303.4,331.9,303.4z"/>
		</g>
		<g>
			<path class="st0" d="M399,126.2c-24.5,0-44.4-22.9-44.4-51.1s19.9-51.1,44.4-51.1c24.5,0,44.4,22.9,44.4,51.1
				S423.5,126.2,399,126.2z M399,56.4c-8.7,0-15.8,8.4-15.8,18.8c0,10.3,7.1,18.8,15.8,18.8c8.7,0,15.8-8.4,15.8-18.8
				C414.8,64.8,407.7,56.4,399,56.4z"/>
		</g>
		<g>
			<path class="st0" d="M466,373.2c-24.5,0-44.4-22.9-44.4-51.1c0-28.1,19.9-51.1,44.4-51.1c24.5,0,44.4,22.9,44.4,51.1
				C510.4,350.3,490.5,373.2,466,373.2z M466,303.4c-8.7,0-15.8,8.4-15.8,18.8c0,10.3,7.1,18.8,15.8,18.8c8.7,0,15.8-8.4,15.8-18.8
				C481.8,311.8,474.7,303.4,466,303.4z"/>
		</g>
	</g>
	<g>
		<path class="st0" d="M456,474.9H342.8c-36.1,0-69.9-15.9-95.2-44.9c-25.4-29-39.4-67.8-39.4-109.2s14-80.2,39.4-109.2
			c25.3-29,59.2-44.9,95.2-44.9H456c36.1,0,69.9,15.9,95.2,44.9c25.4,29,39.4,67.8,39.4,109.2s-14,80.2-39.4,109.2
			C525.9,459,492,474.9,456,474.9z M342.8,199c-28.3,0-54.9,12.5-74.9,35.3c-20.1,22.9-31.1,53.6-31.1,86.5s11,63.6,31.1,86.5
			c19.9,22.8,46.5,35.3,74.9,35.3H456c28.3,0,54.9-12.5,74.9-35.3c20.1-22.9,31.1-53.6,31.1-86.5s-11-63.6-31.1-86.5
			C510.9,211.6,484.3,199,456,199H342.8z"/>
	</g>
	<g>
		<path class="st0" d="M534,759.1H238.7V534.6H534V759.1z M267.3,726.9h238.1v-160H267.3V726.9z"/>
	</g>
	<g>
		<path class="st0" d="M445.1,558.5H342.4V451h102.7V558.5z M371,526.2h45.5v-43H371V526.2z"/>
	</g>
	<g>
		<polygon class="st0" points="248.2,653.3 95.2,476 115.7,453.5 268.7,630.8 		"/>
	</g>
	<g>
		<polygon class="st0" points="529.9,672.4 509.6,649.6 682.3,453.4 702.6,476.1 		"/>
	</g>
	<g>
		<path class="st0" d="M65.8,500.3C65.8,500.3,65.8,500.3,65.8,500.3c-19.6,0-38.1-8.8-51.9-24.9c-8-9.3-10.8-15.4-11.6-17.6
			c-3.5-9.2-2.9-18.7,1.6-26.2c4.5-7.4,12.2-11.5,21-11.1c6.1,0.2,24.2-1.7,33.6-12.6l0,0c9.5-11,11.2-32.6,11-40
			c-0.3-10,3.4-18.7,10-23.7c6.6-5,15.1-5.5,23.2-1.3c1.8,0.9,7,4.1,15,13.4c28.3,32.8,28.3,86.2,0,119
			C103.9,491.4,85.4,500.3,65.8,500.3z M34,452.3c0.1,0.2,0.3,0.4,0.5,0.5C42.8,462.6,54,468,65.8,468c0,0,0,0,0,0
			c11.8,0,23-5.4,31.4-15.1c17.5-20.3,17.6-53.1,0.4-73.5c-1.2,13.8-5.3,35.6-18.7,51.1C65.2,446.4,45.8,451,34,452.3z"/>
	</g>
	<g>
		<path class="st0" d="M732.1,500.3c-19.6,0-38.1-8.8-51.9-24.9c-28.3-32.8-28.3-86.2,0-119c8-9.3,13.2-12.5,15-13.4
			c8.1-4.2,16.6-3.7,23.2,1.3c6.6,5,10.3,13.6,10,23.7c-0.2,7.3,1.5,29,11,40l0,0c9.5,11,27.9,12.8,33.6,12.6
			c8.9-0.3,16.5,3.7,21,11.1c4.5,7.4,5.1,17,1.6,26.2c-0.8,2.2-3.6,8.3-11.6,17.6C770.2,491.4,751.7,500.3,732.1,500.3z
			 M700.3,379.3c-17.2,20.4-17.1,53.3,0.4,73.5c8.4,9.7,19.6,15.1,31.4,15.1c11.8,0,23-5.4,31.4-15.1c0.2-0.2,0.3-0.4,0.5-0.5
			c-11.8-1.3-31.2-6-45-21.9l0,0C705.6,414.9,701.5,393,700.3,379.3z"/>
	</g>
	<g>
		<rect x="379.4" y="107.7" class="st0" width="28.6" height="75.2"/>
	</g>
	<g>
		<g>
			<rect x="253" y="593.1" class="st0" width="163" height="32.3"/>
		</g>
		<g>
			<rect x="253" y="660" class="st0" width="163" height="32.3"/>
		</g>
	</g>
</g>
</svg>
