<?xml version="1.0" encoding="utf-8"?>
<!-- Generator: Adobe Illustrator 25.0.0, SVG Export Plug-In . SVG Version: 6.00 Build 0)  -->
<svg version="1.1" id="Capa_1" xmlns="http://www.w3.org/2000/svg" xmlns:xlink="http://www.w3.org/1999/xlink" x="0px" y="0px"
	 viewBox="0 0 1124.7 99.1" style="enable-background:new 0 0 1124.7 99.1;" xml:space="preserve">
<style type="text/css">
	.st0{opacity:0.31;fill:#FFFFFF;}
	.st1{fill:#FFFFFF;}
</style>
<path class="st0" d="M716.9,22.3c0,0-270.2,48.1-560.4,24.4c0,0-79.3-7.3-156.4-38.2v8.4c30.7,11.9,66.6,23,107.2,30.8
	c17.2,3.3,33.6,5.8,49.3,7.5C446.7,79,716.9,30.9,716.9,30.9c331.6-47.3,407.8-4.8,407.8-4.8v-8.5
	C1124.7,17.5,1048.5-24.9,716.9,22.3z"/>
<path class="st1" d="M716.9,31.7c0,0-270.2,48.1-560.4,24.4c0,0-79.3-7.3-156.4-38.2v81.3h1124.7V26.9
	C1124.7,26.9,1048.5-15.6,716.9,31.7z"/>
<path class="st1" d="M716.9,30.9c0,0-270.2,48.1-560.4,24.4c-15.7-1.7-32.1-4.2-49.3-7.5C66.6,39.9,30.7,28.8,0,16.9v0.9
	c77.1,31,156.4,38.2,156.4,38.2c290.2,23.7,560.4-24.4,560.4-24.4c331.6-47.3,407.8-4.8,407.8-4.8V26
	C1124.7,26,1048.5-16.4,716.9,30.9z"/>
</svg>
