<?xml version="1.0" encoding="utf-8"?>
<!-- Generator: Adobe Illustrator 25.0.0, SVG Export Plug-In . SVG Version: 6.00 Build 0)  -->
<svg version="1.1" id="Capa_1" xmlns="http://www.w3.org/2000/svg" xmlns:xlink="http://www.w3.org/1999/xlink" x="0px" y="0px"
	 viewBox="0 0 60.5 60.5" style="enable-background:new 0 0 60.5 60.5;" xml:space="preserve">
<style type="text/css">
	.st0{fill:none;stroke:#FAB600;stroke-width:4;stroke-miterlimit:10;}
	.st1{fill:none;}
	.st2{fill:#FAB600;}
	.st3{fill:none;stroke:#FAB600;stroke-width:4.6;stroke-linecap:round;stroke-linejoin:round;stroke-miterlimit:10;}
	.st4{fill:none;stroke:#FFFFFF;stroke-width:4.6;stroke-linecap:round;stroke-linejoin:round;stroke-miterlimit:10;}
	.st5{fill:#FFFFFF;}
	.st6{fill:#FFFFFF;stroke:#FAB600;stroke-width:4.6;stroke-linejoin:round;stroke-miterlimit:10;}
	.st7{fill-rule:evenodd;clip-rule:evenodd;fill:#FAB600;}
	.st8{fill:#F6F6F6;}
	.st9{fill-rule:evenodd;clip-rule:evenodd;fill:#FFFFFF;}
</style>
<g>
	<g>
		<path class="st5" d="M50.5,34.7c-1.1,2.6-3.8,4.5-6.8,4.5c-3,0-5.7-1.8-6.8-4.5c-0.4-0.9-0.6-1.9-0.6-3c0-1.1,0.2-2.1,0.6-3
			c1.1-2.6,3.8-4.5,6.8-4.5c3,0,5.7,1.8,6.8,4.5h6.2c-1.4-5.9-6.7-10.4-13-10.4c-6.4,0-11.7,4.4-13,10.4c-0.2,1-0.3,1.9-0.3,3
			c0,1,0.1,2,0.3,3c1.3,6,6.7,10.4,13,10.4c6.4,0,11.7-4.4,13-10.4H50.5z"/>
		<path class="st5" d="M11.2,41.4c0,2-1.7,3.7-3.7,3.7c-2.1,0-3.7-1.7-3.7-3.7c0-2.1,1.7-3.7,3.7-3.7C9.5,37.7,11.2,39.3,11.2,41.4"
			/>
		<path class="st5" d="M19.5,24.3c3,0,5.7,1.8,6.8,4.5H12.7C13.8,26.1,16.4,24.3,19.5,24.3 M24.1,37.5c-1.3,1-2.9,1.6-4.6,1.6
			c-1.7,0-3.4-0.6-4.6-1.6c-0.9-0.8-1.7-1.7-2.2-2.8h13.6h2.9c-0.2-1-0.3-1.9-0.3-3c0-2.6,0.7-5,1.8-7.2c-2.4-3.7-6.5-6.2-11.3-6.2
			c-6.4,0-11.7,4.4-13,10.4c-0.2,1-0.3,1.9-0.3,3c0,1,0.1,2,0.3,3c0.1,0.5,0.3,1,0.4,1.5c0.2,0,0.4,0,0.6,0c0,0,0,0,0,0h0
			c2.9,0,5.2,2.3,5.2,5.2c0,0.6-0.1,1.1-0.3,1.7c2.1,1.3,4.5,2,7.1,2c4.7,0,8.9-2.5,11.3-6.2c-0.2-0.4-0.5-0.9-0.7-1.4H24.1z"/>
	</g>
</g>
</svg>
