<svg id="Capa_1" data-name="Capa 1" xmlns="http://www.w3.org/2000/svg" viewBox="0 0 100 100"><defs><style>.cls-1{fill:#fff;}</style></defs><path class="cls-1" d="M83.45,54.88a12.23,12.23,0,0,1-22.43,0A12,12,0,0,1,60,50a12.23,12.23,0,0,1,23.44-4.89H93.7A22,22,0,0,0,50.21,50a22.39,22.39,0,0,0,.55,4.88,22,22,0,0,0,42.94,0Z"/><path class="cls-1" d="M18.54,65.9a6.12,6.12,0,1,1-6.12-6.12,6.12,6.12,0,0,1,6.12,6.12"/><path class="cls-1" d="M32.23,37.77a12.23,12.23,0,0,1,11.21,7.34H21a12.24,12.24,0,0,1,11.21-7.34m7.62,21.79A12.23,12.23,0,0,1,21,54.88H48.25A25.32,25.32,0,0,1,47.77,50a24.29,24.29,0,0,1,3-11.81,22,22,0,0,0-40,16.69,21.43,21.43,0,0,0,.73,2.52,9.08,9.08,0,0,1,.91,0h0a8.55,8.55,0,0,1,8.11,11.29A22,22,0,0,0,50.8,61.81a23.31,23.31,0,0,1-1.09-2.25Z"/></svg>