<?xml version="1.0" encoding="utf-8"?>
<!-- Generator: Adobe Illustrator 25.0.0, SVG Export Plug-In . SVG Version: 6.00 Build 0)  -->
<svg version="1.1" id="Capa_1" xmlns="http://www.w3.org/2000/svg" xmlns:xlink="http://www.w3.org/1999/xlink" x="0px" y="0px"
	 viewBox="0 0 200 200" style="enable-background:new 0 0 200 200;" xml:space="preserve">
<style type="text/css">
	.st0{fill:#FFFFFF;}
	.st1{fill:#FAB600;}
</style>
<path class="st0" d="M100,35.3c36,0.1,64.8,29.1,64.7,65.3c-0.1,35.4-29.3,64.2-64.9,64.2c-35.8-0.1-64.5-29.2-64.5-65.3
	C35.4,64.2,64.6,35.2,100,35.3z M70.2,103.6c0.3,9.5,1.7,18.6,4.7,27.3c7.3-0.9,14.4-1.8,21.6-2.8c0-8.1,0-16.3,0-24.5
	C87.7,103.6,79.1,103.6,70.2,103.6z M96.4,71.8c-0.5-0.1-0.7-0.2-1-0.2c-6.3-0.8-12.7-1.6-19-2.5c-1.4-0.2-1.9,0.4-2.1,1.5
	c-1.2,6.3-2.6,12.5-3.7,18.8c-0.4,2.3-0.4,4.6-0.5,6.9c9,0,17.6,0,26.3,0C96.4,88.1,96.4,80,96.4,71.8z M103.5,128.1
	c7.2,0.9,14.3,1.8,21.6,2.8c2.9-8.8,4.4-17.8,4.6-27.2c-8.9,0-17.5,0-26.3,0C103.5,111.9,103.5,120,103.5,128.1z M125.1,69.2
	c-7.3,0.9-14.4,1.8-21.6,2.8c0,8.1,0,16.2,0,24.4c8.8,0,17.5,0,26.3,0C129.4,86.9,128.1,77.9,125.1,69.2z M132.6,133
	c2.9,1.1,6.3,2.2,9.6,3.6c1.4,0.6,2.2,0.4,3.1-0.8c5.3-6.8,9-14.4,11-22.9c0.7-3,1-6.1,1.5-9.3c-7.3,0-14,0-20.3,0
	C135.8,113.5,134.2,123.1,132.6,133z M157.3,96.4c0.1-0.2,0.2-0.3,0.2-0.3c-0.7-12.2-5.2-23-12.8-32.5c-0.3-0.4-1.1-0.7-1.4-0.6
	c-3.8,1.3-7.5,2.8-10.7,4c1.6,9.9,3.3,19.6,4.9,29.4C143.8,96.4,150.6,96.4,157.3,96.4z M42.3,103.6c0.2,1.5,0.2,2.9,0.4,4.2
	c1.4,10.5,5.5,19.9,12.2,28.2c0.4,0.5,1.3,1.1,1.7,0.9c3.8-1.3,7.6-2.7,10.8-4c-1.7-9.9-3.3-19.6-4.9-29.4
	C56.1,103.6,49.3,103.6,42.3,103.6z M67.4,67c-2.9-1.1-6.3-2.2-9.6-3.6c-1.4-0.6-2.2-0.4-3.1,0.8c-5.3,6.9-9.1,14.6-11,23.1
	c-0.6,3-1,6-1.5,9.1c7.3,0,14.1,0,20.3,0C64.1,86.5,65.7,76.9,67.4,67z M77.6,137.4c3,8.4,11.6,19.1,18.7,19.5c0-7.2,0-14.3,0-21.9
	C90,135.9,83.9,136.6,77.6,137.4z M103.6,42.6c0,7.6,0,14.8,0,22.3c6.4-0.8,12.5-1.6,19-2.4C118.1,53.6,113.4,45.9,103.6,42.6z
	 M103.4,157.1c7.1-1.2,17.3-11.9,18.8-19.8c-6.2-0.7-12.3-1.5-18.8-2.3c0,1.4,0,2.3,0,3.2C103.4,144.5,103.4,150.7,103.4,157.1z
	 M96.4,42.9c-7.1,1.3-17.1,11.9-18.6,19.8c6.2,0.8,12.3,1.5,18.6,2.3C96.4,57.2,96.4,50.1,96.4,42.9z M138.9,142.6
	c-2.9-1-5.4-1.8-7.8-2.7c-1.3-0.5-1.9-0.2-2.5,1.1c-1.4,2.8-2.9,5.5-4.4,8.1c-0.9,1.5-1.9,2.8-3.3,4.7
	C127.8,151,133.5,147.6,138.9,142.6z M121.5,46.4c2.5,4.4,4.9,8.7,7.3,12.9c0.3,0.4,1.1,1,1.4,0.9c2.8-0.8,5.5-1.8,8.6-2.8
	C133.4,52.5,127.8,48.9,121.5,46.4z M61.1,142.7c5.4,4.8,11,8.4,17.3,10.9c-2.5-4.5-4.9-8.8-7.3-13c-0.2-0.4-1.1-0.8-1.5-0.7
	C66.9,140.6,64.2,141.6,61.1,142.7z M61.1,57.4c3.1,1,5.6,2,8.2,2.8c0.5,0.1,1.4-0.1,1.6-0.4c2.5-4.3,4.9-8.7,7.4-13.2
	C72.1,48.9,66.5,52.5,61.1,57.4z"/>
</svg>
