<?xml version="1.0" encoding="utf-8"?>
<!-- Generator: Adobe Illustrator 25.0.0, SVG Export Plug-In . SVG Version: 6.00 Build 0)  -->
<svg version="1.1" id="Capa_1" xmlns="http://www.w3.org/2000/svg" xmlns:xlink="http://www.w3.org/1999/xlink" x="0px" y="0px"
	 viewBox="0 0 60.5 60.5" style="enable-background:new 0 0 60.5 60.5;" xml:space="preserve">
<style type="text/css">
	.st0{fill:none;stroke:#FAB600;stroke-width:4;stroke-miterlimit:10;}
	.st1{fill:none;}
	.st2{fill:#FAB600;}
	.st3{fill:none;stroke:#FAB600;stroke-width:4.6;stroke-linecap:round;stroke-linejoin:round;stroke-miterlimit:10;}
	.st4{fill:none;stroke:#FFFFFF;stroke-width:4.6;stroke-linecap:round;stroke-linejoin:round;stroke-miterlimit:10;}
	.st5{fill:#FFFFFF;}
	.st6{fill:#FFFFFF;stroke:#FAB600;stroke-width:4.6;stroke-linejoin:round;stroke-miterlimit:10;}
	.st7{fill-rule:evenodd;clip-rule:evenodd;fill:#FAB600;}
	.st8{fill:#F6F6F6;}
	.st9{fill-rule:evenodd;clip-rule:evenodd;fill:#FFFFFF;}
</style>
<g>
	<path class="st5" d="M43.6,38.7c1.6-2.5,2.4-5.3,2.4-8.3c0-3-0.9-5.8-2.4-8.3l0,0l-0.5-0.7c0,0,0,0,0,0l-0.4-0.6l0,0
		c-2.9-3.5-7.2-5.6-11.8-5.6s-8.9,2.1-11.8,5.6l0,0l-0.4,0.6c0,0,0,0,0,0L18,22.2l0,0c-1.6,2.5-2.5,5.3-2.5,8.3c0,3,0.8,5.8,2.5,8.3
		l0,0l0.5,0.7c0,0,0,0,0,0l0.4,0.6l0,0c2.9,3.5,7.2,5.6,11.8,5.6s8.9-2.1,11.8-5.6l0,0l0.4-0.6c0,0,0,0,0,0L43.6,38.7L43.6,38.7z
		 M19.9,37.6c-0.1,0-0.1,0.1-0.2,0.1c-0.1,0.1-0.2,0.1-0.3,0.2c-1.3-2-2-4.3-2.2-6.6h6.2c0,1.8,0.2,3.4,0.5,5
		c-1.4,0.3-2.6,0.7-3.7,1.2C20.1,37.5,20,37.6,19.9,37.6z M19.7,23.2c0.1,0,0.1,0.1,0.2,0.1c0.1,0.1,0.2,0.1,0.3,0.2
		c1.1,0.5,2.4,0.9,3.7,1.2c-0.3,1.5-0.5,3.2-0.5,5h-6.2c0.1-2.4,0.9-4.6,2.2-6.6C19.5,23.1,19.6,23.1,19.7,23.2z M41,23.6
		c0.1,0,0.2-0.1,0.3-0.1c0.1-0.1,0.2-0.1,0.4-0.2c0.1,0,0.1-0.1,0.2-0.1c0.1-0.1,0.2-0.1,0.3-0.2c1.3,2,2,4.3,2.2,6.6h-6.2
		c0-1.8-0.2-3.4-0.5-5C38.8,24.4,40,24,41,23.6C41,23.6,41,23.6,41,23.6z M41.8,37.7c-0.1,0-0.1-0.1-0.2-0.1
		c-0.1-0.1-0.2-0.1-0.4-0.2c-0.1,0-0.2-0.1-0.3-0.1c0,0,0,0-0.1,0c-1-0.4-2.2-0.8-3.4-1.1c0.3-1.5,0.5-3.2,0.5-5h6.2
		c-0.1,2.4-0.9,4.6-2.2,6.6C42.1,37.9,41.9,37.8,41.8,37.7z M34.8,35.8C34.8,35.8,34.8,35.8,34.8,35.8c-0.3,0-0.5-0.1-0.8-0.1
		c0,0-0.1,0-0.1,0c-0.2,0-0.4,0-0.7-0.1c-0.1,0-0.2,0-0.2,0c-0.2,0-0.4,0-0.6,0c-0.1,0-0.3,0-0.4,0c-0.1,0-0.3,0-0.4,0
		c-0.3,0-0.6,0-0.8,0c-0.3,0-0.6,0-0.9,0c-0.1,0-0.3,0-0.4,0c-0.1,0-0.3,0-0.4,0c-0.2,0-0.4,0-0.6,0c-0.1,0-0.1,0-0.2,0
		c-0.2,0-0.4,0-0.7,0.1c0,0-0.1,0-0.1,0c-0.2,0-0.5,0.1-0.7,0.1c0,0,0,0,0,0c-0.4,0-0.8,0.1-1.2,0.2c-0.3-1.4-0.4-3-0.5-4.6h11.4
		c0,1.6-0.2,3.2-0.5,4.6C35.6,35.9,35.2,35.8,34.8,35.8z M26.8,25.2C26.8,25.2,26.8,25.2,26.8,25.2c0.3,0,0.5,0.1,0.8,0.1
		c0,0,0.1,0,0.1,0c0.2,0,0.4,0,0.7,0.1c0.1,0,0.1,0,0.2,0c0.2,0,0.4,0,0.6,0c0.1,0,0.3,0,0.4,0c0.1,0,0.3,0,0.4,0c0.3,0,0.6,0,0.9,0
		c0.3,0,0.6,0,0.8,0c0.1,0,0.3,0,0.4,0c0.1,0,0.3,0,0.4,0c0.2,0,0.4,0,0.6,0c0.1,0,0.2,0,0.2,0c0.2,0,0.4,0,0.7-0.1c0,0,0.1,0,0.1,0
		c0.2,0,0.5-0.1,0.7-0.1c0,0,0,0,0,0c0.4,0,0.8-0.1,1.2-0.2c0.3,1.4,0.4,3,0.5,4.6H25.1c0-1.6,0.2-3.2,0.5-4.6
		C26,25.1,26.4,25.1,26.8,25.2z M35.6,23.4c-0.5,0.1-1,0.2-1.6,0.2c0,0,0,0,0,0c-0.2,0-0.5,0.1-0.7,0.1c0,0-0.1,0-0.1,0
		c-0.2,0-0.4,0-0.7,0c-0.1,0-0.1,0-0.2,0c-0.2,0-0.4,0-0.6,0c-0.1,0-0.1,0-0.2,0c-0.3,0-0.5,0-0.8,0c-0.3,0-0.5,0-0.8,0
		c-0.1,0-0.1,0-0.2,0c-0.2,0-0.4,0-0.6,0c0,0-0.1,0-0.2,0c-0.2,0-0.4,0-0.7,0c0,0-0.1,0-0.1,0c-0.2,0-0.5,0-0.7-0.1c0,0,0,0,0,0
		c-0.5-0.1-1.1-0.1-1.6-0.2c1-3.9,2.8-6.5,4.8-6.5C32.8,16.9,34.6,19.5,35.6,23.4z M25.9,37.5c0.5-0.1,1-0.2,1.6-0.2c0,0,0,0,0,0
		c0.2,0,0.5,0,0.7-0.1c0,0,0.1,0,0.1,0c0.2,0,0.4,0,0.7,0c0.1,0,0.1,0,0.1,0c0.2,0,0.4,0,0.6,0c0.1,0,0.1,0,0.2,0c0.3,0,0.5,0,0.8,0
		c0.3,0,0.5,0,0.8,0c0.1,0,0.1,0,0.2,0c0.2,0,0.4,0,0.6,0c0,0,0.1,0,0.1,0c0.2,0,0.4,0,0.7,0c0,0,0.1,0,0.1,0c0.2,0,0.5,0,0.7,0.1
		c0,0,0,0,0,0c0.5,0.1,1.1,0.1,1.6,0.2c-1,3.9-2.8,6.5-4.8,6.5C28.8,44.1,27,41.4,25.9,37.5z M41,21.8c-0.1,0-0.1,0.1-0.2,0.1
		c-0.1,0.1-0.2,0.1-0.4,0.2c-0.1,0-0.1,0-0.2,0.1c-0.1,0.1-0.3,0.1-0.5,0.2c0,0-0.1,0-0.1,0c-0.8,0.3-1.6,0.5-2.5,0.7
		c-0.6-2.3-1.5-4.2-2.6-5.6c2.5,0.8,4.8,2.2,6.5,4.2C41.1,21.7,41.1,21.8,41,21.8z M24.3,23.1c-0.9-0.2-1.7-0.5-2.5-0.7
		c0,0-0.1,0-0.1,0c-0.2-0.1-0.3-0.1-0.5-0.2c-0.1,0-0.1-0.1-0.2-0.1c-0.1-0.1-0.2-0.1-0.4-0.2c-0.1,0-0.1-0.1-0.2-0.1
		c0,0-0.1-0.1-0.1-0.1c1.7-2,4-3.5,6.5-4.2C25.8,18.8,24.9,20.8,24.3,23.1z M20.6,39.2c0.1,0,0.1,0,0.2-0.1c0.1-0.1,0.3-0.1,0.4-0.2
		c0,0,0.1,0,0.1-0.1c0.2-0.1,0.3-0.1,0.5-0.2c0,0,0,0,0.1,0c0.8-0.3,1.6-0.5,2.5-0.7c0.6,2.3,1.5,4.3,2.6,5.6
		c-2.5-0.7-4.8-2.2-6.5-4.2C20.5,39.2,20.5,39.2,20.6,39.2z M37.2,37.9c0.9,0.2,1.7,0.5,2.5,0.7c0,0,0,0,0.1,0
		c0.2,0.1,0.3,0.1,0.5,0.2c0,0,0.1,0,0.1,0.1c0.1,0.1,0.3,0.1,0.4,0.2c0.1,0,0.1,0.1,0.2,0.1c0,0,0.1,0.1,0.1,0.1
		c-1.7,2-4,3.5-6.5,4.2C35.7,42.1,36.6,40.2,37.2,37.9z"/>
	<path class="st5" d="M53.8,30.4c0,0,0-0.1,0-0.1c0-12.7-10.3-23-23-23c-12.7,0-23,10.3-23,23c0,12.7,10.3,23,23,23
		c4.9,0,9.5-1.5,13.4-4.3l-1.6-2.3c-3.4,2.5-7.5,3.8-11.8,3.8c-11.1,0-20.2-9.1-20.2-20.2c0-11.1,9.1-20.2,20.2-20.2
		S51,19.1,51,30.2c0,0,0,0.1,0,0.1h-3.3l4.7,8.2l4.7-8.2H53.8z"/>
</g>
</svg>
