<?xml version="1.0" encoding="utf-8"?>
<!-- Generator: Adobe Illustrator 25.0.0, SVG Export Plug-In . SVG Version: 6.00 Build 0)  -->
<svg version="1.1" id="Capa_1" xmlns="http://www.w3.org/2000/svg" xmlns:xlink="http://www.w3.org/1999/xlink" x="0px" y="0px"
	 viewBox="0 0 181.3 159.5" style="enable-background:new 0 0 181.3 159.5;" xml:space="preserve">
<style type="text/css">
	.st0{fill:url(#SVGID_1_);}
	.st1{fill:url(#SVGID_2_);}
	.st2{fill:#E32213;}
	.st3{fill:#284596;}
	.st4{fill:url(#SVGID_3_);}
</style>
<g>
	<linearGradient id="SVGID_1_" gradientUnits="userSpaceOnUse" x1="86.4414" y1="36.1849" x2="101.8412" y2="36.1849">
		<stop  offset="0.4065" style="stop-color:#FAB600"/>
		<stop  offset="0.8491" style="stop-color:#F7AA00"/>
	</linearGradient>
	<path class="st0" d="M101.8,6.6v59.2H86.4V6.6H101.8z"/>
	<linearGradient id="SVGID_2_" gradientUnits="userSpaceOnUse" x1="14.8649" y1="36.1849" x2="74.0278" y2="36.1849">
		<stop  offset="0.4065" style="stop-color:#FAB600"/>
		<stop  offset="0.8491" style="stop-color:#F7AA00"/>
	</linearGradient>
	<path class="st1" d="M14.9,65.8V6.6h15.4l28.4,36.2V6.6H74v59.2H58.7L30.3,29.6v36.2H14.9z"/>
	<g>
		<path class="st2" d="M152.7,119.7c-3.6,8.2-11.7,13.9-21.2,13.9c-9.5,0-17.6-5.7-21.2-13.9c-1.2-2.8-1.9-5.9-1.9-9.2
			c0-3.3,0.7-6.4,1.9-9.2c3.6-8.1,11.7-13.8,21.1-13.8c9.5,0,17.6,5.7,21.1,13.8H172c-4.2-18.5-20.7-32.3-40.5-32.3
			S95.2,82.7,91,101.2c-0.7,3-1,6.1-1,9.2c0,3.2,0.4,6.2,1,9.2c4.2,18.5,20.7,32.3,40.5,32.3c19.8,0,36.3-13.8,40.5-32.3H152.7z"/>
		<path class="st3" d="M30.2,140.4c0,6.4-5.2,11.5-11.5,11.5c-6.4,0-11.5-5.2-11.5-11.5c0-6.4,5.2-11.5,11.5-11.5
			C25.1,128.9,30.2,134.1,30.2,140.4"/>
		<path class="st3" d="M56.1,87.4c9.5,0,17.6,5.7,21.1,13.8H34.9C38.5,93.1,46.6,87.4,56.1,87.4 M70.4,128.5c-3.9,3.1-8.9,5-14.4,5
			c-5.4,0-10.4-1.9-14.4-5c-2.9-2.3-5.3-5.4-6.8-8.8h42.3h9.1c-0.6-3-0.9-6.1-0.9-9.2c0-8.1,2.1-15.7,5.7-22.3
			c-7.4-11.6-20.3-19.3-35-19.3c-19.8,0-36.3,13.8-40.5,32.3c-0.7,3-1,6.1-1,9.2c0,3.2,0.4,6.2,1,9.2c0.4,1.6,0.8,3.2,1.4,4.8
			c0.6-0.1,1.1-0.1,1.7-0.1c0,0,0,0,0,0h0c8.9,0,16.1,7.2,16.1,16.2c0,1.8-0.3,3.5-0.9,5.1c6.4,4,14,6.4,22.1,6.4
			c14.7,0,27.7-7.7,35-19.3c-0.8-1.4-1.5-2.8-2.1-4.2H70.4z"/>
	</g>
	<linearGradient id="SVGID_3_" gradientUnits="userSpaceOnUse" x1="110.4412" y1="35.0235" x2="171.2452" y2="35.0235">
		<stop  offset="0.4065" style="stop-color:#FAB600"/>
		<stop  offset="0.8491" style="stop-color:#F7AA00"/>
	</linearGradient>
	<path class="st4" d="M156.9,41.8c-2.6,6-8.7,10.3-15.7,10.3c-7,0-13-4.2-15.7-10.3c-0.9-2.1-1.4-4.4-1.4-6.8c0-2.4,0.5-4.7,1.4-6.8
		c2.6-6,8.7-10.3,15.7-10.3c7,0,13,4.2,15.7,10.3h14.3c-3.1-13.7-15.4-23.9-30-23.9s-26.9,10.2-30,23.9c-0.5,2.2-0.8,4.5-0.8,6.8
		c0,2.3,0.3,4.6,0.8,6.8c3.1,13.7,15.4,24,30,24c14.7,0,26.9-10.2,30-24H156.9z"/>
</g>
</svg>
