<svg id="Capa_1" data-name="Capa 1" xmlns="http://www.w3.org/2000/svg" viewBox="0 0 100 100"><defs><style>.cls-1{fill:#fff;}</style></defs><path class="cls-1" d="M67,57.61V38.93c0-1.53.25-1.78,1.76-1.78H76.7c1.34,0,1.59.26,1.59,1.6q0,19,0,37.92c0,1.32-.28,1.59-1.59,1.6-2.72,0-5.43,0-8.15,0-1.24,0-1.53-.3-1.54-1.54Z"/><path class="cls-1" d="M52,64.19c0-4.18,0-8.36,0-12.55,0-.92.37-1.31,1.27-1.31,2.82,0,5.64,0,8.46,0,1.23,0,1.51.29,1.52,1.56q0,12.45,0,24.89c0,1.22-.29,1.5-1.57,1.5q-4,0-7.92,0c-1.56,0-1.77-.2-1.77-1.74,0-4.12,0-8.23,0-12.34Z"/><path class="cls-1" d="M28.36,43.51l3.85-1.14A27.86,27.86,0,0,0,34,45a4.1,4.1,0,0,0,5.79.41A3.16,3.16,0,0,0,39.23,40a30.43,30.43,0,0,0-2.95-1.11,37,37,0,0,1-4.12-1.81c-4.46-2.52-4.13-9.44.12-11.93.93-.55,2-.93,3.1-1.46v-2h2.76l.11,2.16c3.25.9,5.79,2.51,6.48,6.23l-4,1.16c-.2-.59-.35-1.09-.53-1.57a3.28,3.28,0,0,0-2.85-2.41,3.37,3.37,0,0,0-3.5,1.79,3.14,3.14,0,0,0,.31,3.81,6.9,6.9,0,0,0,2.47,1.66c1.24.53,2.59.79,3.87,1.22a6.45,6.45,0,0,1,4.82,6.49,6.88,6.88,0,0,1-4.74,6.85,1.17,1.17,0,0,1-.31.12c-1.55.16-2.59.73-2,2.64H35.4c.72-2.31-1-2.37-2.47-2.85A6.73,6.73,0,0,1,28.36,43.51Z"/><path class="cls-1" d="M36.83,68.89c0-2.63,0-5.27,0-7.91,0-1,.42-1.43,1.41-1.43,2.83,0,5.65,0,8.48,0,1,0,1.42.48,1.42,1.46,0,5.28,0,10.55,0,15.83,0,1-.44,1.44-1.45,1.44q-4.19,0-8.36,0c-1,0-1.51-.39-1.5-1.48C36.86,74.17,36.83,71.53,36.83,68.89Z"/><path class="cls-1" d="M33,71.24c0,1.85,0,3.7,0,5.54,0,1-.41,1.52-1.49,1.5-2.71,0-5.42,0-8.13,0-1.06,0-1.65-.46-1.65-1.54q0-5.77,0-11.55a1,1,0,0,1,1.13-1.13h8.94c.93,0,1.22.56,1.22,1.4C33,67.4,33,69.32,33,71.24Z"/><path class="cls-1" d="M53.33,45.92c.36-.36.7-.76,1.1-1.09A123.72,123.72,0,0,0,71,28.57l-2.26-2c-1-.93-1-1.57.32-2q3.84-1.35,7.69-2.66c1.26-.42,1.73,0,1.49,1.28-.5,2.66-1,5.33-1.53,8-.27,1.37-.85,1.57-1.91.68-.77-.65-1.53-1.32-2.4-2.07-.33.35-.64.65-.92,1a121.19,121.19,0,0,1-15.6,15.21,14.36,14.36,0,0,1-1.49.94Z"/><path class="cls-1" d="M53.33,45.92l1,1a3.6,3.6,0,0,1-.54.67c-8.21,6.29-17,11.38-27.1,14.14a25.4,25.4,0,0,1-3.77.75c-.37,0-.8-.43-1.2-.66.31-.35.58-.93.95-1,9.24-1.7,17.36-5.92,25.08-11,1.57-1,3.07-2.2,4.6-3.29C52.66,46.24,53,46.1,53.33,45.92Z"/></svg>