<?xml version="1.0" encoding="utf-8"?>
<!-- Generator: Adobe Illustrator 25.0.0, SVG Export Plug-In . SVG Version: 6.00 Build 0)  -->
<svg version="1.1" id="Capa_1" xmlns="http://www.w3.org/2000/svg" xmlns:xlink="http://www.w3.org/1999/xlink" x="0px" y="0px"
	 viewBox="0 0 70 70" style="enable-background:new 0 0 70 70;" xml:space="preserve">
<style type="text/css">
	.st0{fill:#FFFFFF;}
	.st1{fill-rule:evenodd;clip-rule:evenodd;fill:#FFFFFF;}
</style>
<g>
	<path class="st0" d="M49.6,36.4c0.2-0.3,0.6-0.5,1-0.5c3.1-0.6,5.5-3,5.8-6c0.4-3.3-1.2-6.1-4.3-7.4c-0.9-0.4-1.2-0.9-1.5-1.7
		c-1.8-4.8-5.2-8.1-10-9.9c-8.7-3.1-18,1.3-21.3,10.1c-0.3,0.7-0.6,1.2-1.3,1.4c-1.6,0.6-2.7,1.7-3.6,3.1c-2,3.4-0.5,8.2,3.1,9.6
		c0-0.1,1.6,0.6,1.7,0.6c0.8,0.1,1.6,0.1,2.5,0.2c0-0.6,0-1,0-1.3c0-3.8,0-7.6,0-11.4c0-0.8,0.2-1.6,0.5-2.3
		c4.2-9.4,16.6-11.3,23.4-3.6c1.8,2,2.9,4.3,2.8,7.2c-0.2,3.3,0,6.5-0.1,9.8c0,0.7-0.2,1.6-0.6,2.2c-1.8,2.7-4.4,4.5-7.4,5.5
		c-0.8,0.3-1.4,0.3-2.2-0.2c-1.1-0.8-2.8-0.3-3.4,0.9c-0.7,1.3-0.2,2.9,1.2,3.6c1.2,0.6,2.8,0.1,3.2-1.2c0.5-1.7,1.9-1.4,3.1-1.7
		c-2.2,4.9-4.4,9.9-6.8,15.1c-2.6-5.5-5-10.7-7.5-15.9c-7,4-10,10.3-11.8,17.7c13,0,25.8,0,38.7,0c-1.7-7.3-4.8-13.5-11.5-17.6
		c0.2-0.1,0.3-0.2,0.4-0.3C46.2,40.8,48.2,38.9,49.6,36.4z"/>
	<circle class="st0" cx="35" cy="29" r="10.6"/>
</g>
</svg>
