<?xml version="1.0" encoding="utf-8"?>
<!-- Generator: Adobe Illustrator 25.0.0, SVG Export Plug-In . SVG Version: 6.00 Build 0)  -->
<svg version="1.1" id="Capa_1" xmlns="http://www.w3.org/2000/svg" xmlns:xlink="http://www.w3.org/1999/xlink" x="0px" y="0px"
	 viewBox="0 0 70 70" style="enable-background:new 0 0 70 70;" xml:space="preserve">
<style type="text/css">
	.st0{fill:#FFFFFF;}
	.st1{fill-rule:evenodd;clip-rule:evenodd;fill:#FFFFFF;}
</style>
<g>
	<path class="st0" d="M46.7,44c1.7-2.6,2.6-5.6,2.6-8.7c0-3.1-0.9-6.1-2.6-8.7l0,0l-0.6-0.8c0,0,0,0,0,0l-0.5-0.6l0,0
		c-3-3.7-7.7-6-12.5-6s-9.4,2.2-12.5,6l0,0l-0.5,0.6c0,0,0,0,0,0l-0.5,0.7l0,0c-1.7,2.6-2.6,5.6-2.6,8.7c0,3.1,0.9,6.1,2.6,8.7l0,0
		l0.5,0.7c0,0,0,0,0,0l0.5,0.6l0,0c3,3.7,7.7,6,12.5,6s9.4-2.2,12.5-6l0,0l0.5-0.6c0,0,0,0,0,0L46.7,44L46.7,44z M21.8,42.8
		c-0.1,0-0.1,0.1-0.2,0.1c-0.1,0.1-0.2,0.1-0.3,0.2c-1.4-2.1-2.2-4.5-2.3-7h6.6c0,1.9,0.2,3.6,0.5,5.2c-1.4,0.3-2.8,0.8-3.9,1.3
		C22,42.7,21.9,42.8,21.8,42.8z M21.5,27.5c0.1,0,0.1,0.1,0.2,0.1c0.1,0.1,0.2,0.1,0.3,0.2c1.2,0.5,2.5,1,3.9,1.3
		c-0.3,1.6-0.5,3.4-0.5,5.3h-6.6c0.2-2.5,0.9-4.9,2.3-7C21.3,27.4,21.4,27.5,21.5,27.5z M44.1,28c0.1,0,0.2-0.1,0.3-0.1
		c0.1-0.1,0.2-0.1,0.4-0.2c0.1,0,0.1-0.1,0.2-0.1c0.1-0.1,0.2-0.1,0.3-0.2c1.4,2.1,2.2,4.5,2.3,7H41c0-1.9-0.2-3.6-0.6-5.3
		C41.7,28.8,42.9,28.4,44.1,28C44,28,44.1,28,44.1,28z M44.9,42.9c-0.1,0-0.1-0.1-0.2-0.1c-0.1-0.1-0.3-0.1-0.4-0.2
		c-0.1,0-0.2-0.1-0.3-0.1c0,0,0,0-0.1,0c-1.1-0.5-2.3-0.9-3.6-1.2c0.3-1.6,0.5-3.4,0.6-5.2h6.6c-0.1,2.5-0.9,4.9-2.3,7
		C45.2,43,45,43,44.9,42.9z M37.5,40.8C37.5,40.8,37.5,40.8,37.5,40.8c-0.3,0-0.6-0.1-0.8-0.1c0,0-0.1,0-0.1,0c-0.2,0-0.5,0-0.7-0.1
		c-0.1,0-0.2,0-0.2,0c-0.2,0-0.4,0-0.6,0c-0.1,0-0.3,0-0.4,0c-0.1,0-0.3,0-0.4,0c-0.3,0-0.6,0-0.9,0c-0.3,0-0.6,0-0.9,0
		c-0.2,0-0.3,0-0.5,0c-0.1,0-0.3,0-0.4,0c-0.2,0-0.4,0-0.6,0c-0.1,0-0.2,0-0.2,0c-0.2,0-0.5,0-0.7,0.1c0,0-0.1,0-0.1,0
		c-0.3,0-0.5,0.1-0.8,0.1c0,0,0,0,0,0c-0.4,0.1-0.8,0.1-1.3,0.2c-0.3-1.5-0.5-3.2-0.5-4.9h12c0,1.7-0.2,3.4-0.5,4.9
		C38.3,40.9,37.9,40.9,37.5,40.8z M29,29.7C29,29.7,29,29.7,29,29.7c0.3,0,0.5,0.1,0.8,0.1c0,0,0.1,0,0.1,0c0.2,0,0.5,0,0.7,0.1
		c0.1,0,0.2,0,0.2,0c0.2,0,0.4,0,0.6,0c0.1,0,0.3,0,0.4,0c0.2,0,0.3,0,0.5,0c0.3,0,0.6,0,0.9,0c0.3,0,0.6,0,0.9,0c0.1,0,0.3,0,0.4,0
		c0.1,0,0.3,0,0.4,0c0.2,0,0.4,0,0.6,0c0.1,0,0.2,0,0.2,0c0.2,0,0.5,0,0.7-0.1c0,0,0.1,0,0.1,0c0.3,0,0.5-0.1,0.8-0.1c0,0,0,0,0.1,0
		c0.4,0,0.8-0.1,1.3-0.2c0.3,1.5,0.5,3.2,0.5,4.9h-12c0-1.7,0.2-3.4,0.5-4.9C28.1,29.5,28.6,29.6,29,29.7z M38.4,27.8
		c-0.5,0.1-1.1,0.2-1.7,0.2c0,0,0,0,0,0c-0.3,0-0.5,0.1-0.8,0.1c0,0-0.1,0-0.1,0c-0.2,0-0.5,0-0.7,0c-0.1,0-0.1,0-0.2,0
		c-0.2,0-0.4,0-0.7,0c-0.1,0-0.1,0-0.2,0c-0.3,0-0.6,0-0.8,0c-0.3,0-0.6,0-0.8,0c-0.1,0-0.1,0-0.2,0c-0.2,0-0.4,0-0.7,0
		c-0.1,0-0.1,0-0.2,0c-0.2,0-0.5,0-0.7,0c0,0-0.1,0-0.1,0c-0.3,0-0.5,0-0.8-0.1c0,0,0,0,0,0c-0.6-0.1-1.1-0.1-1.7-0.2
		c1.1-4.1,3-6.9,5.1-6.9C35.4,20.9,37.3,23.7,38.4,27.8z M28.1,42.7c0.5-0.1,1.1-0.2,1.7-0.2c0,0,0,0,0,0c0.3,0,0.5,0,0.8-0.1
		c0,0,0.1,0,0.1,0c0.2,0,0.5,0,0.7,0c0.1,0,0.1,0,0.2,0c0.2,0,0.4,0,0.7,0c0.1,0,0.1,0,0.2,0c0.3,0,0.6,0,0.8,0c0.3,0,0.6,0,0.8,0
		c0.1,0,0.1,0,0.2,0c0.2,0,0.4,0,0.7,0c0.1,0,0.1,0,0.2,0c0.2,0,0.5,0,0.7,0c0,0,0.1,0,0.1,0c0.3,0,0.5,0,0.8,0.1c0,0,0,0,0,0
		c0.6,0.1,1.1,0.1,1.7,0.2c-1.1,4.1-3,6.9-5.1,6.9C31.1,49.6,29.2,46.8,28.1,42.7z M44.1,26.1c-0.1,0-0.1,0.1-0.2,0.1
		c-0.1,0.1-0.3,0.1-0.4,0.2c-0.1,0-0.1,0.1-0.2,0.1c-0.2,0.1-0.3,0.1-0.5,0.2c0,0-0.1,0-0.1,0c-0.8,0.3-1.7,0.6-2.6,0.8
		c-0.6-2.5-1.6-4.5-2.7-5.9c2.7,0.8,5.1,2.4,6.9,4.5C44.2,26,44.1,26,44.1,26.1z M26.4,27.4c-0.9-0.2-1.8-0.5-2.6-0.8
		c0,0-0.1,0-0.1,0c-0.2-0.1-0.3-0.1-0.5-0.2c-0.1,0-0.1-0.1-0.2-0.1c-0.1-0.1-0.3-0.1-0.4-0.2c-0.1,0-0.1-0.1-0.2-0.1
		c-0.1,0-0.1-0.1-0.2-0.1c1.8-2.1,4.2-3.7,6.9-4.5C28,22.9,27.1,25,26.4,27.4z M22.4,44.4c0.1,0,0.1-0.1,0.2-0.1
		c0.1-0.1,0.3-0.1,0.4-0.2c0,0,0.1,0,0.1-0.1c0.2-0.1,0.4-0.1,0.5-0.2c0,0,0,0,0.1,0c0.8-0.3,1.7-0.6,2.6-0.8
		c0.6,2.4,1.6,4.5,2.7,5.9c-2.7-0.8-5.1-2.3-6.9-4.5C22.3,44.5,22.4,44.5,22.4,44.4z M40.1,43.1c0.9,0.2,1.8,0.5,2.6,0.8
		c0,0,0,0,0.1,0c0.2,0.1,0.4,0.1,0.5,0.2c0,0,0.1,0,0.1,0.1c0.1,0.1,0.3,0.1,0.4,0.2c0.1,0,0.1,0.1,0.2,0.1c0.1,0,0.1,0.1,0.2,0.1
		c-1.8,2.1-4.2,3.7-6.9,4.5C38.5,47.6,39.4,45.5,40.1,43.1z"/>
	<path class="st0" d="M57.6,35.1c0,0,0-0.1,0-0.1c0-13.4-10.9-24.3-24.3-24.3C19.8,10.7,8.9,21.6,8.9,35c0,13.4,10.9,24.3,24.3,24.3
		c5.1,0,10.1-1.6,14.2-4.6l-1.7-2.4c-3.6,2.6-8,4-12.5,4c-11.8,0-21.4-9.6-21.4-21.4c0-11.8,9.6-21.4,21.4-21.4S54.6,23.2,54.6,35
		c0,0,0,0.1,0,0.1h-3.5l5,8.7l5-8.7H57.6z"/>
</g>
</svg>
