<?xml version="1.0" encoding="utf-8"?>
<!-- Generator: Adobe Illustrator 25.0.0, SVG Export Plug-In . SVG Version: 6.00 Build 0)  -->
<svg version="1.1" id="Capa_1" xmlns="http://www.w3.org/2000/svg" xmlns:xlink="http://www.w3.org/1999/xlink" x="0px" y="0px"
	 viewBox="0 0 70 70" style="enable-background:new 0 0 70 70;" xml:space="preserve">
<style type="text/css">
	.st0{fill:#FFFFFF;}
	.st1{fill-rule:evenodd;clip-rule:evenodd;fill:#FFFFFF;}
</style>
<g>
	<g>
		<path class="st0" d="M59.5,38.6C58.1,41.8,55,44,51.3,44c-3.7,0-6.8-2.2-8.2-5.4c-0.5-1.1-0.7-2.3-0.7-3.6c0-1.3,0.3-2.5,0.8-3.6
			c1.4-3.2,4.5-5.4,8.2-5.4c3.7,0,6.8,2.2,8.2,5.4H67c-1.6-7.2-8.1-12.6-15.7-12.6c-7.7,0-14.1,5.4-15.7,12.6
			c-0.3,1.2-0.4,2.4-0.4,3.6c0,1.2,0.1,2.4,0.4,3.6c1.6,7.2,8.1,12.6,15.7,12.6c7.7,0,14.1-5.4,15.7-12.6H59.5z"/>
		<path class="st0" d="M11.9,46.7c0,2.5-2,4.5-4.5,4.5c-2.5,0-4.5-2-4.5-4.5c0-2.5,2-4.5,4.5-4.5C9.9,42.2,11.9,44.2,11.9,46.7"/>
		<path class="st0" d="M22,26c3.7,0,6.8,2.2,8.2,5.4H13.8C15.1,28.2,18.3,26,22,26 M27.6,42c-1.5,1.2-3.5,2-5.6,2
			c-2.1,0-4.1-0.7-5.6-2c-1.1-0.9-2-2.1-2.6-3.4h16.4h3.5c-0.2-1.2-0.4-2.4-0.4-3.6c0-3.1,0.8-6.1,2.2-8.7
			c-2.9-4.5-7.9-7.5-13.6-7.5c-7.7,0-14.1,5.4-15.7,12.6C6,32.6,5.8,33.8,5.8,35c0,1.2,0.1,2.4,0.4,3.6c0.1,0.6,0.3,1.2,0.5,1.9
			c0.2,0,0.4,0,0.7,0c0,0,0,0,0,0h0c3.5,0,6.3,2.8,6.3,6.3c0,0.7-0.1,1.4-0.3,2c2.5,1.6,5.4,2.5,8.6,2.5c5.7,0,10.8-3,13.6-7.5
			c-0.3-0.5-0.6-1.1-0.8-1.6H27.6z"/>
	</g>
</g>
</svg>
