<?xml version="1.0" encoding="utf-8"?>
<!-- Generator: Adobe Illustrator 25.0.0, SVG Export Plug-In . SVG Version: 6.00 Build 0)  -->
<svg version="1.1" id="Capa_1" xmlns="http://www.w3.org/2000/svg" xmlns:xlink="http://www.w3.org/1999/xlink" x="0px" y="0px"
	 viewBox="0 0 70 70" style="enable-background:new 0 0 70 70;" xml:space="preserve">
<style type="text/css">
	.st0{fill:#FFFFFF;}
	.st1{fill-rule:evenodd;clip-rule:evenodd;fill:#FFFFFF;}
</style>
<path class="st1" d="M57.9,15.6l-6.9-4c-1.4-0.8-2.8-0.4-3.6,1l-2.1,3.7H16c-2.9,0-5.3,2.6-5.3,5.5v31.7c0,2.9,2.4,5.3,5.3,5.3
	l31.7,0c2.9,0,5.6-2.4,5.6-5.3l0-24.5l5.6-9.7C59.7,17.8,59.3,16.4,57.9,15.6z M50.6,53.5c0,1.5-1.4,2.7-2.9,2.7l-31.7,0
	c-1.5,0-2.6-1.2-2.6-2.6V21.8c0-1.5,1.2-2.9,2.7-2.9l27.7,0l-3,5.2H21.3c-0.7,0-1.3,0.6-1.3,1.3c0,0.7,0.6,1.3,1.3,1.3l17.8,0
	l-3.1,5.3H21.3c-0.7,0-1.3,0.6-1.3,1.3c0,0.7,0.6,1.3,1.3,1.3h13.2l-2,3.4l0,1.9l-11.2,0c-0.7,0-1.3,0.6-1.3,1.3
	c0,0.7,0.6,1.3,1.3,1.3l11.2,0l0,5.3H21.3c-0.7,0-1.3,0.6-1.3,1.3c0,0.7,0.6,1.3,1.3,1.3h12.1c0.3,0,1-0.3,1.3-0.4l9.3-5.5l6.5-11.2
	V53.5z M41.9,43.2L35,47.3l0-8L45,22l6.9,4L41.9,43.2z M55.9,19.1l-2.7,4.6l-6.9-4l2.7-4.6c0.6-1.2,0.7-1.2,1.8-0.5l4.6,2.7
	C56.5,17.9,56.6,17.9,55.9,19.1z"/>
</svg>
