<?xml version="1.0" encoding="utf-8"?>
<!-- Generator: Adobe Illustrator 25.0.0, SVG Export Plug-In . SVG Version: 6.00 Build 0)  -->
<svg version="1.1" id="Capa_1" xmlns="http://www.w3.org/2000/svg" xmlns:xlink="http://www.w3.org/1999/xlink" x="0px" y="0px"
	 viewBox="0 0 60.5 60.5" style="enable-background:new 0 0 60.5 60.5;" xml:space="preserve">
<style type="text/css">
	.st0{fill:none;stroke:#FAB600;stroke-width:4;stroke-miterlimit:10;}
	.st1{fill:none;}
	.st2{fill:#FAB600;}
	.st3{fill:none;stroke:#FAB600;stroke-width:4.6;stroke-linecap:round;stroke-linejoin:round;stroke-miterlimit:10;}
	.st4{fill:none;stroke:#FFFFFF;stroke-width:4.6;stroke-linecap:round;stroke-linejoin:round;stroke-miterlimit:10;}
	.st5{fill:#FFFFFF;}
	.st6{fill:#FFFFFF;stroke:#FAB600;stroke-width:4.6;stroke-linejoin:round;stroke-miterlimit:10;}
	.st7{fill-rule:evenodd;clip-rule:evenodd;fill:#FAB600;}
	.st8{fill:#F6F6F6;}
	.st9{fill-rule:evenodd;clip-rule:evenodd;fill:#FFFFFF;}
</style>
<path class="st9" d="M51.7,12.4l-6.5-3.7c-1.3-0.8-2.6-0.4-3.4,0.9l-2,3.4H12.5c-2.7,0-5,2.4-5,5.2v29.7c0,2.7,2.2,4.9,4.9,4.9
	l29.6,0c2.7,0,5.2-2.2,5.2-5l0-22.9l5.3-9.1C53.3,14.5,53,13.2,51.7,12.4z M44.8,47.8c0,1.4-1.4,2.5-2.7,2.5l-29.6,0
	c-1.4,0-2.5-1.1-2.5-2.5V18.2c0-1.4,1.1-2.7,2.5-2.7l25.9,0l-2.8,4.9H17.5c-0.7,0-1.2,0.6-1.2,1.2c0,0.7,0.6,1.2,1.2,1.2l16.7,0
	l-2.9,5H17.5c-0.7,0-1.2,0.6-1.2,1.2c0,0.7,0.6,1.2,1.2,1.2h12.4L28,33.5l0,1.8l-10.5,0c-0.7,0-1.2,0.6-1.2,1.2
	c0,0.7,0.6,1.2,1.2,1.2l10.5,0l0,5H17.5c-0.7,0-1.2,0.6-1.2,1.2c0,0.7,0.6,1.2,1.2,1.2h11.4c0.3,0,1-0.2,1.2-0.4l8.7-5.1l6.1-10.5
	V47.8z M36.7,38.3l-6.5,3.8l0-7.5l9.3-16.2l6.5,3.7L36.7,38.3z M49.8,15.7L47.3,20l-6.5-3.7l2.5-4.3c0.6-1.1,0.7-1.1,1.7-0.5
	l4.3,2.5C50.4,14.6,50.4,14.6,49.8,15.7z"/>
<polyline class="st5" points="27,8.3 26.9,8.4 26.9,8.4 26.8,8.6 "/>
</svg>
