<?xml version="1.0" encoding="utf-8"?>
<!-- Generator: Adobe Illustrator 25.0.0, SVG Export Plug-In . SVG Version: 6.00 Build 0)  -->
<svg version="1.1" id="Capa_1" xmlns="http://www.w3.org/2000/svg" xmlns:xlink="http://www.w3.org/1999/xlink" x="0px" y="0px"
	 viewBox="0 0 60.5 60.5" style="enable-background:new 0 0 60.5 60.5;" xml:space="preserve">
<style type="text/css">
	.st0{fill:none;stroke:#FAB600;stroke-width:4;stroke-miterlimit:10;}
	.st1{fill:none;}
	.st2{fill:#FAB600;}
	.st3{fill:none;stroke:#FAB600;stroke-width:4.6;stroke-linecap:round;stroke-linejoin:round;stroke-miterlimit:10;}
	.st4{fill:none;stroke:#FFFFFF;stroke-width:4.6;stroke-linecap:round;stroke-linejoin:round;stroke-miterlimit:10;}
	.st5{fill:#FFFFFF;}
	.st6{fill:#FFFFFF;stroke:#FAB600;stroke-width:4.6;stroke-linejoin:round;stroke-miterlimit:10;}
	.st7{fill-rule:evenodd;clip-rule:evenodd;fill:#FAB600;}
</style>
<g>
	<g>
		<path class="st0" d="M21.3,11.8c2.1-2.3,5.1-3.5,8.9-3.5V4.5h2.7v3.7c3.8,0.3,6.7,1.4,8.7,3.3c2,2,3.1,4.6,3.2,7.8h-5
			c-0.1-1.4-0.5-2.7-1.2-3.7c-1.2-1.9-3.1-2.9-5.7-3v13.9c4.4,1.2,7.4,2.4,9,3.5c2.6,1.8,3.9,4.4,3.9,7.9c0,5.1-1.6,8.7-4.9,10.8
			c-1.8,1.2-4.5,2-7.9,2.3v5.5h-2.7V51c-5.5-0.4-9.3-2.3-11.3-5.9c-1.1-1.9-1.6-4.5-1.6-7.8h5.1c0.2,2.6,0.6,4.5,1.2,5.7
			c1.2,2.2,3.4,3.4,6.6,3.6V31.2c-4.1-0.8-7.2-2.1-9.1-3.9c-2-1.8-3-4.4-3-7.6C18.1,16.8,19.2,14.2,21.3,11.8z M25.1,23.7
			c1.3,1.1,2.9,1.8,5.1,2.2V12.6c-2.5,0.1-4.3,0.9-5.4,2.3s-1.6,2.9-1.6,4.5C23.3,21.2,23.9,22.7,25.1,23.7z M39.7,43.3
			c0.6-1.1,1-2.5,1-4c0-2.4-0.9-4.2-2.6-5.4c-1-0.7-2.7-1.4-5.1-2.1v15C36.2,46.7,38.4,45.5,39.7,43.3z"/>
	</g>
</g>
</svg>
