<?xml version="1.0" encoding="utf-8"?>
<!-- Generator: Adobe Illustrator 25.0.0, SVG Export Plug-In . SVG Version: 6.00 Build 0)  -->
<svg version="1.1" id="Capa_1" xmlns="http://www.w3.org/2000/svg" xmlns:xlink="http://www.w3.org/1999/xlink" x="0px" y="0px"
	 viewBox="0 0 100 70" style="enable-background:new 0 0 100 70;" xml:space="preserve">
<style type="text/css">
	.st0{fill:#FFFFFF;}
</style>
<g>
	<g>
		<polygon class="st0" points="83.6,20.5 83.6,43.7 71.2,31.4 		"/>
		<line class="st0" x1="83.6" y1="0" x2="83.6" y2="70.7"/>
	</g>
	<g>
		<g>
			<path class="st0" d="M57.9,35.7c-1.4,3.2-4.6,5.4-8.3,5.4c-3.7,0-6.9-2.2-8.3-5.4c-0.5-1.1-0.8-2.3-0.8-3.6
				c0-1.3,0.3-2.5,0.8-3.6c1.4-3.2,4.6-5.4,8.3-5.4c3.7,0,6.9,2.2,8.3,5.4h7.6c-1.6-7.3-8.1-12.7-15.9-12.7s-14.2,5.4-15.9,12.7
				c-0.3,1.2-0.4,2.4-0.4,3.6c0,1.2,0.1,2.5,0.4,3.6c1.6,7.3,8.1,12.7,15.9,12.7c7.8,0,14.3-5.4,15.9-12.7H57.9z"/>
			<path class="st0" d="M9.8,43.9c0,2.5-2,4.5-4.5,4.5c-2.5,0-4.5-2-4.5-4.5c0-2.5,2-4.5,4.5-4.5C7.8,39.3,9.8,41.4,9.8,43.9"/>
			<path class="st0" d="M20,23c3.7,0,6.9,2.2,8.3,5.4H11.7C13.1,25.3,16.2,23,20,23 M25.6,39.2c-1.5,1.2-3.5,2-5.6,2
				c-2.1,0-4.1-0.7-5.6-2c-1.1-0.9-2.1-2.1-2.7-3.5h16.6h3.6c-0.2-1.2-0.4-2.4-0.4-3.6c0-3.2,0.8-6.2,2.2-8.7
				c-2.9-4.5-8-7.6-13.8-7.6c-7.8,0-14.2,5.4-15.9,12.7c-0.3,1.2-0.4,2.4-0.4,3.6c0,1.2,0.1,2.5,0.4,3.6c0.1,0.6,0.3,1.3,0.5,1.9
				c0.2,0,0.4,0,0.7,0c0,0,0,0,0,0h0c3.5,0,6.3,2.8,6.3,6.3c0,0.7-0.1,1.4-0.3,2c2.5,1.6,5.5,2.5,8.7,2.5c5.8,0,10.9-3,13.8-7.6
				c-0.3-0.5-0.6-1.1-0.8-1.7H25.6z"/>
		</g>
	</g>
	<g>
		<g>
			<path class="st0" d="M96,40.8V31h-2.7l1.5-2.9h4.4v12.7H96z"/>
		</g>
	</g>
</g>
</svg>
