<?xml version="1.0" encoding="utf-8"?>
<!-- Generator: Adobe Illustrator 25.0.0, SVG Export Plug-In . SVG Version: 6.00 Build 0)  -->
<svg version="1.1" id="Capa_1" xmlns="http://www.w3.org/2000/svg" xmlns:xlink="http://www.w3.org/1999/xlink" x="0px" y="0px"
	 viewBox="0 0 100 70" style="enable-background:new 0 0 100 70;" xml:space="preserve">
<style type="text/css">
	.st0{fill:#FFFFFF;}
	.st1{fill-rule:evenodd;clip-rule:evenodd;fill:#FFFFFF;}
</style>
<g>
	<g>
		<polygon class="st0" points="76.6,20.3 76.6,43.3 64.4,31.1 		"/>
		<line class="st0" x1="76.6" y1="0" x2="76.6" y2="70"/>
	</g>
	<g>
		<g>
			<path class="st0" d="M90.9,40.4v-2.8h-5.8v-2.5l4.7-7.3h4v7.3h1.4v2.5l-1.4,0v2.8H90.9z M90.9,35.1v-3.7c0-0.3,0-0.6,0-0.9
				c0-0.2,0-0.4,0.1-0.6c-0.1,0.3-0.2,0.5-0.4,0.7c0,0.1-0.2,0.4-0.5,0.9l-2.3,3.6H90.9z"/>
		</g>
	</g>
	<path class="st1" d="M52,13.4l-6.9-4c-1.4-0.8-2.8-0.4-3.6,1L39.3,14H10.1c-2.9,0-5.3,2.6-5.3,5.5v31.7c0,2.9,2.4,5.3,5.3,5.3
		l31.7,0c2.9,0,5.6-2.4,5.6-5.3l0-24.5l5.6-9.7C53.7,15.6,53.3,14.2,52,13.4z M44.6,51.2c0,1.5-1.4,2.7-2.9,2.7l-31.7,0
		c-1.5,0-2.6-1.2-2.6-2.6V19.6c0-1.5,1.2-2.9,2.7-2.9l27.7,0l-3,5.2H15.4c-0.7,0-1.3,0.6-1.3,1.3c0,0.7,0.6,1.3,1.3,1.3l17.8,0
		l-3.1,5.3H15.4c-0.7,0-1.3,0.6-1.3,1.3c0,0.7,0.6,1.3,1.3,1.3h13.2l-2,3.4l0,1.9l-11.2,0c-0.7,0-1.3,0.6-1.3,1.3
		c0,0.7,0.6,1.3,1.3,1.3l11.2,0l0,5.3H15.4c-0.7,0-1.3,0.6-1.3,1.3c0,0.7,0.6,1.3,1.3,1.3h12.1c0.3,0,1-0.3,1.3-0.4l9.3-5.5
		l6.5-11.2V51.2z M36,41l-6.9,4.1l0-8l10-17.3l6.9,4L36,41z M50,16.8l-2.7,4.6l-6.9-4l2.7-4.6c0.6-1.2,0.7-1.2,1.8-0.5l4.6,2.7
		C50.6,15.7,50.7,15.7,50,16.8z"/>
</g>
</svg>
