<?xml version="1.0" encoding="utf-8"?>
<!-- Generator: Adobe Illustrator 25.0.0, SVG Export Plug-In . SVG Version: 6.00 Build 0)  -->
<svg version="1.1" id="Capa_1" xmlns="http://www.w3.org/2000/svg" xmlns:xlink="http://www.w3.org/1999/xlink" x="0px" y="0px"
	 viewBox="0 0 100 70" style="enable-background:new 0 0 100 70;" xml:space="preserve">
<style type="text/css">
	.st0{fill:#FFFFFF;}
	.st1{font-family:'Futura-Bold';}
	.st2{font-size:17.7529px;}
</style>
<g>
	<g>
		<polygon class="st0" points="76.3,20.2 76.3,43.2 64.1,31 		"/>
		<line class="st0" x1="76.3" y1="0" x2="76.3" y2="69.8"/>
	</g>
	<g>
		<path class="st0" d="M42.4,43.9c1.7-2.6,2.6-5.6,2.6-8.7c0-3.1-0.9-6.1-2.6-8.7l0,0l-0.6-0.8c0,0,0,0,0,0L41.4,25l0,0
			c-3-3.7-7.7-6-12.5-6s-9.4,2.2-12.5,6l0,0l-0.5,0.6c0,0,0,0,0,0l-0.5,0.7l0,0c-1.7,2.6-2.6,5.6-2.6,8.7c0,3.1,0.9,6.1,2.6,8.7l0,0
			l0.5,0.7c0,0,0,0,0,0l0.5,0.6l0,0c3,3.7,7.7,6,12.5,6s9.4-2.2,12.5-6l0,0l0.5-0.6c0,0,0,0,0,0L42.4,43.9L42.4,43.9z M17.4,42.7
			c-0.1,0-0.1,0.1-0.2,0.1c-0.1,0.1-0.2,0.1-0.3,0.2c-1.4-2.1-2.2-4.5-2.3-7h6.6c0,1.9,0.2,3.6,0.5,5.2c-1.4,0.3-2.8,0.8-3.9,1.3
			C17.6,42.6,17.5,42.7,17.4,42.7z M17.2,27.4c0.1,0,0.1,0.1,0.2,0.1c0.1,0.1,0.2,0.1,0.3,0.2c1.2,0.5,2.5,1,3.9,1.3
			c-0.3,1.6-0.5,3.4-0.5,5.3h-6.6c0.2-2.5,0.9-4.9,2.3-7C16.9,27.3,17,27.4,17.2,27.4z M39.7,27.8c0.1,0,0.2-0.1,0.3-0.1
			c0.1-0.1,0.2-0.1,0.4-0.2c0.1,0,0.1-0.1,0.2-0.1c0.1-0.1,0.2-0.1,0.3-0.2c1.4,2.1,2.2,4.5,2.3,7h-6.6c0-1.9-0.2-3.6-0.6-5.3
			C37.4,28.7,38.6,28.3,39.7,27.8C39.7,27.9,39.7,27.9,39.7,27.8z M40.5,42.8c-0.1,0-0.1-0.1-0.2-0.1c-0.1-0.1-0.3-0.1-0.4-0.2
			c-0.1,0-0.2-0.1-0.3-0.1c0,0,0,0-0.1,0c-1.1-0.5-2.3-0.9-3.6-1.2c0.3-1.6,0.5-3.4,0.6-5.2h6.6c-0.1,2.5-0.9,4.9-2.3,7
			C40.8,42.9,40.7,42.9,40.5,42.8z M33.1,40.7C33.1,40.7,33.1,40.7,33.1,40.7c-0.3,0-0.6-0.1-0.8-0.1c0,0-0.1,0-0.1,0
			c-0.2,0-0.5,0-0.7-0.1c-0.1,0-0.2,0-0.2,0c-0.2,0-0.4,0-0.6,0c-0.1,0-0.3,0-0.4,0c-0.1,0-0.3,0-0.4,0c-0.3,0-0.6,0-0.9,0
			c-0.3,0-0.6,0-0.9,0c-0.2,0-0.3,0-0.5,0c-0.1,0-0.3,0-0.4,0c-0.2,0-0.4,0-0.6,0c-0.1,0-0.2,0-0.2,0c-0.2,0-0.5,0-0.7,0.1
			c0,0-0.1,0-0.1,0c-0.3,0-0.5,0.1-0.8,0.1c0,0,0,0,0,0c-0.4,0.1-0.8,0.1-1.3,0.2c-0.3-1.5-0.5-3.2-0.5-4.9h12
			c0,1.7-0.2,3.4-0.5,4.9C33.9,40.8,33.5,40.8,33.1,40.7z M24.6,29.5C24.6,29.5,24.6,29.6,24.6,29.5c0.3,0,0.5,0.1,0.8,0.1
			c0,0,0.1,0,0.1,0c0.2,0,0.5,0,0.7,0.1c0.1,0,0.2,0,0.2,0c0.2,0,0.4,0,0.6,0c0.1,0,0.3,0,0.4,0c0.2,0,0.3,0,0.5,0
			c0.3,0,0.6,0,0.9,0c0.3,0,0.6,0,0.9,0c0.1,0,0.3,0,0.4,0c0.1,0,0.3,0,0.4,0c0.2,0,0.4,0,0.6,0c0.1,0,0.2,0,0.2,0
			c0.2,0,0.5,0,0.7-0.1c0,0,0.1,0,0.1,0c0.3,0,0.5-0.1,0.8-0.1c0,0,0,0,0.1,0c0.4,0,0.8-0.1,1.3-0.2c0.3,1.5,0.5,3.2,0.5,4.9h-12
			c0-1.7,0.2-3.4,0.5-4.9C23.8,29.4,24.2,29.5,24.6,29.5z M34,27.7c-0.5,0.1-1.1,0.2-1.7,0.2c0,0,0,0,0,0c-0.3,0-0.5,0.1-0.8,0.1
			c0,0-0.1,0-0.1,0c-0.2,0-0.5,0-0.7,0c-0.1,0-0.1,0-0.2,0c-0.2,0-0.4,0-0.7,0c-0.1,0-0.1,0-0.2,0c-0.3,0-0.6,0-0.8,0
			c-0.3,0-0.6,0-0.8,0c-0.1,0-0.1,0-0.2,0c-0.2,0-0.4,0-0.7,0c-0.1,0-0.1,0-0.2,0c-0.2,0-0.5,0-0.7,0c0,0-0.1,0-0.1,0
			c-0.3,0-0.5,0-0.8-0.1c0,0,0,0,0,0c-0.6-0.1-1.1-0.1-1.7-0.2c1.1-4.1,3-6.9,5.1-6.9C31,20.8,32.9,23.6,34,27.7z M23.7,42.6
			c0.5-0.1,1.1-0.2,1.7-0.2c0,0,0,0,0,0c0.3,0,0.5,0,0.8-0.1c0,0,0.1,0,0.1,0c0.2,0,0.5,0,0.7,0c0.1,0,0.1,0,0.2,0
			c0.2,0,0.4,0,0.7,0c0.1,0,0.1,0,0.2,0c0.3,0,0.6,0,0.8,0c0.3,0,0.6,0,0.8,0c0.1,0,0.1,0,0.2,0c0.2,0,0.4,0,0.7,0
			c0.1,0,0.1,0,0.2,0c0.2,0,0.5,0,0.7,0c0,0,0.1,0,0.1,0c0.3,0,0.5,0,0.8,0.1c0,0,0,0,0,0c0.6,0.1,1.1,0.1,1.7,0.2
			c-1.1,4.1-3,6.9-5.1,6.9C26.7,49.5,24.8,46.7,23.7,42.6z M39.7,26c-0.1,0-0.1,0.1-0.2,0.1c-0.1,0.1-0.3,0.1-0.4,0.2
			c-0.1,0-0.1,0.1-0.2,0.1c-0.2,0.1-0.3,0.1-0.5,0.2c0,0-0.1,0-0.1,0c-0.8,0.3-1.7,0.6-2.6,0.8c-0.6-2.5-1.6-4.5-2.7-5.9
			c2.7,0.8,5.1,2.4,6.9,4.5C39.8,25.9,39.7,25.9,39.7,26z M22,27.3c-0.9-0.2-1.8-0.5-2.6-0.8c0,0-0.1,0-0.1,0
			c-0.2-0.1-0.3-0.1-0.5-0.2c-0.1,0-0.1-0.1-0.2-0.1c-0.1-0.1-0.3-0.1-0.4-0.2C18.2,26,18.1,26,18,26c-0.1,0-0.1-0.1-0.2-0.1
			c1.8-2.1,4.2-3.7,6.9-4.5C23.6,22.8,22.7,24.9,22,27.3z M18,44.3c0.1,0,0.1-0.1,0.2-0.1c0.1-0.1,0.3-0.1,0.4-0.2
			c0,0,0.1,0,0.1-0.1c0.2-0.1,0.4-0.1,0.5-0.2c0,0,0,0,0.1,0c0.8-0.3,1.7-0.6,2.6-0.8c0.6,2.4,1.6,4.5,2.7,5.9
			c-2.7-0.8-5.1-2.3-6.9-4.5C17.9,44.4,18,44.4,18,44.3z M35.7,43c0.9,0.2,1.8,0.5,2.6,0.8c0,0,0,0,0.1,0c0.2,0.1,0.4,0.1,0.5,0.2
			c0,0,0.1,0,0.1,0.1c0.1,0.1,0.3,0.1,0.4,0.2c0.1,0,0.1,0.1,0.2,0.1c0.1,0,0.1,0.1,0.2,0.1c-1.8,2.1-4.2,3.7-6.9,4.5
			C34.1,47.4,35,45.4,35.7,43z"/>
		<path class="st0" d="M53.2,35c0,0,0-0.1,0-0.1c0-13.4-10.9-24.3-24.3-24.3c-13.4,0-24.3,10.9-24.3,24.3
			c0,13.4,10.9,24.3,24.3,24.3c5.1,0,10.1-1.6,14.2-4.6l-1.7-2.4c-3.6,2.6-8,4-12.5,4c-11.8,0-21.4-9.6-21.4-21.4
			c0-11.8,9.6-21.4,21.4-21.4s21.4,9.6,21.4,21.4c0,0,0,0.1,0,0.1h-3.5l5,8.7l5-8.7H53.2z"/>
	</g>
	<g>
		<text transform="matrix(1 0 0 1 84.3734 40.3057)" class="st0 st1 st2">2</text>
	</g>
</g>
</svg>
