<?xml version="1.0" encoding="utf-8"?>
<!-- Generator: Adobe Illustrator 25.0.0, SVG Export Plug-In . SVG Version: 6.00 Build 0)  -->
<svg version="1.1" id="Capa_1" xmlns="http://www.w3.org/2000/svg" xmlns:xlink="http://www.w3.org/1999/xlink" x="0px" y="0px"
	 viewBox="0 0 60.5 60.5" style="enable-background:new 0 0 60.5 60.5;" xml:space="preserve">
<style type="text/css">
	.st0{fill:none;stroke:#FAB600;stroke-width:4;stroke-miterlimit:10;}
	.st1{fill:none;}
	.st2{fill:#FAB600;}
	.st3{fill:none;stroke:#FAB600;stroke-width:4.6;stroke-linecap:round;stroke-linejoin:round;stroke-miterlimit:10;}
	.st4{fill:none;stroke:#FFFFFF;stroke-width:4.6;stroke-linecap:round;stroke-linejoin:round;stroke-miterlimit:10;}
	.st5{fill:#FFFFFF;}
	.st6{fill:#FFFFFF;stroke:#FAB600;stroke-width:4.6;stroke-linejoin:round;stroke-miterlimit:10;}
	.st7{fill-rule:evenodd;clip-rule:evenodd;fill:#FAB600;}
</style>
<g>
	<g>
		<path class="st2" d="M31.2,5.6c4.7,0,9.4,1.8,13,5.4c5.7,5.7,6.8,14.1,3.6,20.9c-0.7,1.4-10.5,17-14.6,23.5c-0.4,0.7-1.1,1-1.8,1
			c-0.7,0-1.4-0.3-1.8-1c-4.2-6.5-14.2-22.2-14.9-23.6C11.4,25,12.6,16.6,18.2,11C21.8,7.4,26.5,5.6,31.2,5.6 M31.2,1.9
			c-5.9,0-11.4,2.3-15.6,6.5C9,14.9,7.3,25,11.3,33.4c0.2,0.5,0.9,1.8,15.1,24c1.1,1.7,2.9,2.7,4.9,2.7c2,0,3.9-1,4.9-2.7
			C50.2,35.3,50.8,34,51.1,33.5c4.1-8.4,2.4-18.6-4.3-25.2C42.6,4.2,37.1,1.9,31.2,1.9L31.2,1.9z"/>
	</g>
</g>
<path class="st5" d="M31.3,56.4c-0.7,0-1.4-0.3-1.8-1c-4.2-6.5-14.2-22.2-14.9-23.6C11.4,25,12.6,16.6,18.2,11
	c3.6-3.6,8.4-5.4,13.1-5.4V56.4z"/>
<path class="st6" d="M39.4,22.1c0,4.8-3.9,8.8-8.8,8.8s-8.8-3.9-8.8-8.8c0-4.8,3.9-8.8,8.8-8.8S39.4,17.2,39.4,22.1z"/>
</svg>
