<?xml version="1.0" encoding="utf-8"?>
<!-- Generator: Adobe Illustrator 25.0.0, SVG Export Plug-In . SVG Version: 6.00 Build 0)  -->
<svg version="1.1" id="Capa_1" xmlns="http://www.w3.org/2000/svg" xmlns:xlink="http://www.w3.org/1999/xlink" x="0px" y="0px"
	 viewBox="0 0 1249.2 322" style="enable-background:new 0 0 1249.2 322;" xml:space="preserve">
<style type="text/css">
	.st0{fill:#F6F6F6;}
	.st1{fill:#FFFFFF;}
</style>
<path class="st0" d="M1232.2,312c-16.5,0-33.1,0-49.6,0c-43.8,0-87.5,0-131.3,0c-62.2,0-124.5,0-186.7,0c-71.9,0-143.9,0-215.8,0
	c-72.9,0-145.8,0-218.7,0c-65.1,0-130.2,0-195.3,0c-48.3,0-96.6,0-145,0c-23.4,0-46.8,0-70.1,0c-3.9,0-8-0.3-9.4-5.1
	c-1.2-4.3-0.3-10-0.3-14.4c0-27,0-54,0-81c0-61.8,0-123.6,0-185.3c0-6.2-1.6-15.1,7-16c1.2-0.1,2.4,0,3.6,0c8.6,0,17.1,0,25.7,0
	c38,0,76,0,114.1,0c58.6,0,117.2,0,175.8,0c70.2,0,140.4,0,210.6,0c73.3,0,146.5,0,219.8,0c67.8,0,135.6,0,203.5,0
	c53.4,0,106.8,0,160.2,0c30.2,0,60.5,0,90.7,0c6.5,0,17.1-2,18.2,7c0.5,4.3,0,8.9,0,13.1c0,11.5,0,23,0,34.4c0,67.3,0,134.6,0,201.9
	c0,9.8,0,19.6,0,29.4C1239.2,301.9,1240.8,311.4,1232.2,312c-6.4,0.4-6.4,10.4,0,10c9.7-0.7,16.6-7.4,17-17.2c0.1-1.7,0-3.4,0-5.1
	c0-9.1,0-18.2,0-27.3c0-32.8,0-65.6,0-98.5c0-34.9,0-69.7,0-104.6c0-17.4,0.8-34.9,0-52.3c-0.4-10.1-8-16.9-17.9-17.1
	c-2.2,0-4.4,0-6.7,0c-10.7,0-21.3,0-32,0c-41.7,0-83.5,0-125.2,0C1006,0,944.4,0,882.9,0c-72.7,0-145.3,0-218,0
	C591,0,517.1,0,443.2,0c-66.5,0-133,0-199.5,0c-50,0-100,0-150,0c-24.5,0-49,0-73.5,0c-2,0-4.1-0.1-6.1,0.3
	c-11.7,2.1-14,12.4-14,22.3c0,24.4,0,48.7,0,73.1c0,64.8,0,129.6,0,194.4c0,4.9-0.2,9.9,0,14.8c0.5,10.1,8.1,16.9,18,17.1
	c6.7,0.1,13.4,0,20.1,0c35.6,0,71.1,0,106.7,0c57.7,0,115.5,0,173.2,0c70.7,0,141.4,0,212.1,0c74.4,0,148.7,0,223.1,0
	c69.1,0,138.3,0,207.4,0c54.8,0,109.7,0,164.5,0c31.6,0,63.1,0,94.7,0c4.1,0,8.3,0,12.4,0C1238.7,322,1238.7,312,1232.2,312z"/>
<g>
	<path class="st1" d="M115.6,277.5V67.4h54.6l100.9,128.5V67.4h54.3v210.1h-54.3L170.2,149v128.5H115.6z"/>
	<path class="st1" d="M424.1,67.4v210.1h-54.6V67.4H424.1z"/>
	<path class="st1" d="M1067.3,191.1c-9.5,21.8-31.2,37.1-56.5,37.1c-25.3,0-47-15.3-56.5-37.1c-3.3-7.5-5.1-15.8-5.1-24.6
		c0-8.8,1.9-17.1,5.2-24.7c9.5-21.8,31.2-37,56.5-37c25.3,0,47,15.2,56.5,37h51.7c-11.2-49.4-55.4-86.3-108.2-86.3
		s-97,36.9-108.2,86.3c-1.8,7.9-2.8,16.2-2.8,24.7c0,8.5,1,16.7,2.8,24.6c11.2,49.4,55.4,86.4,108.2,86.4c52.8,0,97-36.9,108.2-86.4
		H1067.3z"/>
	<path class="st1" d="M740.2,246.6c0,17-13.8,30.8-30.8,30.8c-17,0-30.8-13.8-30.8-30.8c0-17,13.8-30.8,30.8-30.8
		C726.4,215.8,740.2,229.6,740.2,246.6"/>
	<path class="st1" d="M809.2,104.9c25.3,0,47,15.2,56.5,37h-113C762.2,120.1,783.9,104.9,809.2,104.9 M847.6,214.7
		c-10.5,8.4-23.9,13.5-38.4,13.5c-14.5,0-27.9-5.1-38.4-13.5c-7.8-6.2-14.1-14.3-18.1-23.6h113.1h24.2c-1.6-7.9-2.5-16.2-2.5-24.6
		c0-21.6,5.6-41.9,15.3-59.5c-19.7-30.9-54.2-51.4-93.6-51.4c-52.8,0-97,36.9-108.2,86.3c-1.8,7.9-2.8,16.2-2.8,24.7
		c0,8.5,1,16.7,2.8,24.6c1,4.3,2.2,8.6,3.7,12.7c1.5-0.2,3.1-0.3,4.6-0.3c0,0,0,0,0,0h0c23.8,0,43.1,19.3,43.1,43.2
		c0,4.8-0.8,9.4-2.3,13.8c17.1,10.8,37.3,17,59,17c39.4,0,73.9-20.5,93.6-51.5c-2-3.7-3.9-7.4-5.5-11.3H847.6z"/>
	<path class="st1" d="M619.4,192.5C610,214,588.7,229,563.8,229c-24.9,0-46.3-15-55.6-36.5c-3.2-7.4-5.1-15.6-5.1-24.2
		c0-8.6,1.8-16.8,5.1-24.3c9.4-21.4,30.7-36.4,55.6-36.4c24.9,0,46.2,15,55.6,36.4h50.9c-11-48.6-54.5-84.9-106.4-84.9
		c-52,0-95.4,36.3-106.4,84.9c-1.8,7.8-2.7,15.9-2.7,24.3c0,8.3,1,16.4,2.7,24.2c11,48.6,54.5,85,106.5,85c52,0,95.5-36.3,106.5-85
		H619.4z"/>
</g>
</svg>
