<?xml version="1.0" encoding="utf-8"?>
<!-- Generator: Adobe Illustrator 25.0.0, SVG Export Plug-In . SVG Version: 6.00 Build 0)  -->
<svg version="1.1" id="Capa_1" xmlns="http://www.w3.org/2000/svg" xmlns:xlink="http://www.w3.org/1999/xlink" x="0px" y="0px"
	 viewBox="0 0 200 200" style="enable-background:new 0 0 200 200;" xml:space="preserve">
<style type="text/css">
	.st0{fill:#FFFFFF;}
	.st1{fill:#FAB600;}
</style>
<g>
	<path class="st0" d="M112.4,118.8H86.9V88.1H95c5.6,0,9.8-1.1,12.7-3.3c2.8-2.2,4.2-5.5,4.2-9.8c0-3.4-1.1-6.3-3.3-8.6
		c-2.2-2.3-5-3.5-8.3-3.5c-3.4,0-6.1,0.9-8.1,2.7c-2.1,2-3.2,4.7-3.3,8.1H63.6v-0.3c0-9.5,3.4-17.2,10.2-23c6.8-5.8,16-8.7,27.6-8.7
		c10.5,0,18.9,3,25.3,9.1c6.4,6.1,9.5,14,9.5,23.9c0,8.2-2.2,14.9-6.5,20.2c-4.4,5.2-10.2,7.8-17.3,8L112.4,118.8z M83.8,143.3
		c0-4.1,1.5-7.6,4.4-10.6c3-3,6.5-4.4,10.6-4.4c4.2,0,7.8,1.4,10.6,4.3c2.9,2.9,4.3,6.4,4.3,10.7c0,4.2-1.4,7.8-4.3,10.7
		c-2.9,2.9-6.4,4.3-10.5,4.3c-4,0-7.6-1.5-10.6-4.4C85.3,151,83.8,147.4,83.8,143.3z"/>
</g>
</svg>
