<?xml version="1.0" encoding="utf-8"?>
<!-- Generator: Adobe Illustrator 25.0.0, SVG Export Plug-In . SVG Version: 6.00 Build 0)  -->
<svg version="1.1" id="Capa_1" xmlns="http://www.w3.org/2000/svg" xmlns:xlink="http://www.w3.org/1999/xlink" x="0px" y="0px"
	 viewBox="0 0 60.5 60.5" style="enable-background:new 0 0 60.5 60.5;" xml:space="preserve">
<style type="text/css">
	.st0{fill:none;stroke:#FAB600;stroke-width:4;stroke-miterlimit:10;}
	.st1{fill:none;}
	.st2{fill:#FAB600;}
	.st3{fill:none;stroke:#FAB600;stroke-width:4.6;stroke-linecap:round;stroke-linejoin:round;stroke-miterlimit:10;}
	.st4{fill:none;stroke:#FFFFFF;stroke-width:4.6;stroke-linecap:round;stroke-linejoin:round;stroke-miterlimit:10;}
	.st5{fill:#FFFFFF;}
	.st6{fill:#FFFFFF;stroke:#FAB600;stroke-width:4.6;stroke-linejoin:round;stroke-miterlimit:10;}
	.st7{fill-rule:evenodd;clip-rule:evenodd;fill:#FAB600;}
</style>
<path class="st1" d="M27.5,56.3c-1.7,0-3-1.3-3-3l0-4.6c-1.1-0.3-2.2-0.8-3.2-1.3L18,50.6c-0.6,0.6-1.3,0.9-2.1,0.9
	c-0.8,0-1.6-0.3-2.1-0.9l-3.9-3.9C9.3,46.1,9,45.4,9,44.6c0-0.8,0.3-1.6,0.9-2.1l3.3-3.3c-0.5-1-1-2.1-1.3-3.2H7.2c-1.7,0-3-1.3-3-3
	v-5.5c0-1.7,1.3-3,3-3h4.6c0.3-1.1,0.8-2.2,1.3-3.2L9.9,18C9.3,17.5,9,16.7,9,15.9c0-0.8,0.3-1.6,0.9-2.1l3.9-3.9
	C14.4,9.3,15.1,9,15.9,9c0.8,0,1.6,0.3,2.1,0.9l3.3,3.3c1-0.5,2.1-1,3.2-1.3V7.2c0-1.7,1.3-3,3-3H33c1.7,0,3,1.3,3,3l0,4.6
	c1.1,0.3,2.2,0.8,3.2,1.3l3.3-3.3C43,9.3,43.8,9,44.6,9c0.8,0,1.6,0.3,2.1,0.9l3.9,3.9c0.6,0.6,0.9,1.3,0.9,2.1
	c0,0.8-0.3,1.6-0.9,2.1l-3.3,3.3c0.5,1,1,2.1,1.3,3.2h4.6c1.7,0,3,1.3,3,3V33c0,1.7-1.3,3-3,3h-4.6c-0.3,1.1-0.8,2.2-1.3,3.2
	l3.3,3.3c0.6,0.6,0.9,1.3,0.9,2.1c0,0.8-0.3,1.6-0.9,2.1l-3.9,3.9c-0.6,0.6-1.3,0.9-2.1,0.9c-0.8,0-1.6-0.3-2.1-0.9l-3.3-3.3
	c-1,0.5-2.1,1-3.2,1.3v4.6c0,1.7-1.3,3-3,3H27.5z M30.2,23.4c-3.8,0-6.8,3.1-6.8,6.8c0,3.8,3.1,6.8,6.8,6.8c3.8,0,6.8-3.1,6.8-6.8
	C37.1,26.5,34,23.4,30.2,23.4z"/>
<path class="st2" d="M33,5.8c0.8,0,1.4,0.6,1.4,1.4l0,5.1c0,0.4,0.3,0.8,0.7,0.9c1.3,0.4,2.5,0.9,3.7,1.5c0.1,0.1,0.3,0.1,0.5,0.1
	c0.2,0,0.5-0.1,0.6-0.3l3.6-3.6c0.3-0.3,0.6-0.4,1-0.4c0.4,0,0.7,0.1,1,0.4l3.9,3.9c0.6,0.6,0.6,1.5,0,2l-3.6,3.6
	c-0.3,0.3-0.4,0.7-0.2,1.1c0.6,1.2,1.2,2.4,1.5,3.7c0.1,0.4,0.5,0.7,0.9,0.7h5.1c0.8,0,1.4,0.6,1.4,1.4V33c0,0.8-0.6,1.4-1.4,1.4
	h-5.1c-0.4,0-0.8,0.3-0.9,0.7c-0.4,1.3-0.9,2.5-1.5,3.7c-0.2,0.4-0.2,0.8,0.1,1.1l3.6,3.6c0.6,0.6,0.6,1.5,0,2l-3.9,3.9
	c-0.3,0.3-0.6,0.4-1,0.4c-0.4,0-0.7-0.1-1-0.4L40,45.9c-0.2-0.2-0.4-0.3-0.7-0.3c-0.2,0-0.3,0-0.5,0.1c-1.2,0.6-2.4,1.2-3.7,1.5
	c-0.4,0.1-0.7,0.5-0.7,0.9v5.1c0,0.8-0.6,1.4-1.4,1.4h-5.5c-0.8,0-1.4-0.6-1.4-1.4l0-5.1c0-0.4-0.3-0.8-0.7-0.9
	c-1.3-0.4-2.5-0.9-3.7-1.5c-0.1-0.1-0.3-0.1-0.5-0.1c-0.2,0-0.5,0.1-0.6,0.3l-3.6,3.6c-0.3,0.3-0.6,0.4-1,0.4c-0.4,0-0.7-0.1-1-0.4
	L11,45.6c-0.6-0.6-0.6-1.5,0-2l3.6-3.6c0.3-0.3,0.4-0.7,0.2-1.1c-0.6-1.2-1.2-2.4-1.5-3.7c-0.1-0.4-0.5-0.7-0.9-0.7H7.2
	c-0.8,0-1.4-0.6-1.4-1.4v-5.5c0-0.8,0.6-1.4,1.4-1.4h5.1c0.4,0,0.8-0.3,0.9-0.7c0.4-1.3,0.9-2.5,1.5-3.7c0.2-0.4,0.2-0.8-0.1-1.1
	L11,16.9c-0.6-0.6-0.6-1.5,0-2l3.9-3.9c0.3-0.3,0.6-0.4,1-0.4c0.4,0,0.7,0.1,1,0.4l3.6,3.6c0.2,0.2,0.4,0.3,0.7,0.3
	c0.2,0,0.3,0,0.5-0.1c1.2-0.6,2.4-1.2,3.7-1.5c0.4-0.1,0.7-0.5,0.7-0.9V7.2c0-0.8,0.6-1.4,1.4-1.4H33 M30.2,38.6
	c4.6,0,8.4-3.8,8.4-8.4c0-4.6-3.8-8.4-8.4-8.4c-4.6,0-8.4,3.8-8.4,8.4C21.8,34.9,25.6,38.6,30.2,38.6 M33,2.6h-5.5
	c-2.5,0-4.6,2-4.6,4.6v3.5c-0.4,0.2-0.9,0.3-1.3,0.5l-2.5-2.5c-0.9-0.9-2-1.3-3.2-1.3c-1.2,0-2.4,0.5-3.2,1.3l-3.9,3.9
	c-0.9,0.9-1.3,2-1.3,3.2c0,1.2,0.5,2.4,1.3,3.2l2.5,2.5c-0.2,0.4-0.4,0.8-0.5,1.3H7.2c-2.5,0-4.6,2-4.6,4.6V33c0,2.5,2,4.6,4.6,4.6
	h3.5c0.2,0.4,0.3,0.9,0.5,1.3l-2.5,2.5c-0.9,0.9-1.3,2-1.3,3.2c0,1.2,0.5,2.4,1.3,3.2l3.9,3.9c0.9,0.9,2,1.3,3.2,1.3
	c1.2,0,2.4-0.5,3.2-1.3l2.5-2.5c0.4,0.2,0.8,0.4,1.3,0.5l0,3.5c0,2.5,2,4.6,4.6,4.6H33c2.5,0,4.6-2,4.6-4.6v-3.5
	c0.4-0.2,0.9-0.3,1.3-0.5l2.5,2.5c0.9,0.9,2,1.3,3.2,1.3c1.2,0,2.4-0.5,3.2-1.3l3.9-3.9c0.9-0.9,1.3-2,1.3-3.2
	c0-1.2-0.5-2.4-1.3-3.2l-2.5-2.5c0.2-0.4,0.4-0.8,0.5-1.3h3.5c2.5,0,4.6-2,4.6-4.6v-5.5c0-2.5-2-4.6-4.6-4.6h-3.5
	c-0.2-0.4-0.3-0.9-0.5-1.3l2.5-2.5c0.9-0.9,1.3-2,1.3-3.2c0-1.2-0.5-2.4-1.3-3.2l-3.9-3.9c-0.9-0.9-2-1.3-3.2-1.3
	c-1.2,0-2.4,0.5-3.2,1.3l-2.5,2.5c-0.4-0.2-0.8-0.4-1.3-0.5l0-3.5C37.6,4.7,35.5,2.6,33,2.6L33,2.6z M30.2,35.5
	c-2.9,0-5.3-2.4-5.3-5.3s2.4-5.3,5.3-5.3c2.9,0,5.3,2.4,5.3,5.3S33.1,35.5,30.2,35.5L30.2,35.5z"/>
<path class="st4" d="M31.1,17.4c6.7,0,12.1,5.4,12.1,12.1"/>
</svg>
