<svg id="Capa_1" data-name="Capa 1" xmlns="http://www.w3.org/2000/svg" viewBox="0 0 100 100"><defs><style>.cls-1{fill:#fff;}</style></defs><path class="cls-1" d="M68.64,51.76a2,2,0,0,1,1.28-.67,9,9,0,0,0,7.4-7.65A8.77,8.77,0,0,0,71.89,34a3.3,3.3,0,0,1-2-2.17A20.7,20.7,0,0,0,57.16,19.27,21.18,21.18,0,0,0,30,32.11,2.64,2.64,0,0,1,28.3,34a8.47,8.47,0,0,0-4.56,4c-2.55,4.37-.58,10.49,3.94,12.24.31-2,2.14-4.16,3.94-4-1.69.54-1.64,1.44-1.22,2-.7.32-1.69.46-1.88.93-.42,1,.38,1.7,1.34,1.88a28.2,28.2,0,0,0,3.2.24V49.51c0-4.85,0-9.7,0-14.55a7.5,7.5,0,0,1,.59-2.89,17.86,17.86,0,0,1,29.8-4.55c2.27,2.6,3.74,5.48,3.53,9.17-.24,4.16,0,8.34-.09,12.51A5.43,5.43,0,0,1,66.1,52a17.44,17.44,0,0,1-9.47,7,2.63,2.63,0,0,1-2.76-.29,3.08,3.08,0,0,0-4.39,1.09A3.26,3.26,0,0,0,51,64.33a2.87,2.87,0,0,0,4.08-1.51c.64-2.19,2.46-1.73,4-2.2l-8.65,19.2L40.85,59.48C32,64.56,28.11,72.66,25.86,82H75.23C73,72.7,69.1,64.73,60.52,59.59l.55-.36A19.55,19.55,0,0,0,68.64,51.76Z"/><path class="cls-1" d="M41.58,54a14.43,14.43,0,0,0,21.5-17.82c-2.24-4.89-8.38-8.79-12.66-8-.08.47-.16.94-.25,1.41h-.31c-.15-.45-.3-.89-.45-1.3-6.87-.89-13.3,6.81-13.21,11.44l2.18-1.53a2.07,2.07,0,0,1-.6,1.19l-.75.91L38.29,42,36,40.63C34.78,43.9,37.13,51,41.58,54Z"/></svg>