<?xml version="1.0" encoding="utf-8"?>
<!-- Generator: Adobe Illustrator 25.0.0, SVG Export Plug-In . SVG Version: 6.00 Build 0)  -->
<svg version="1.1" id="Capa_1" xmlns="http://www.w3.org/2000/svg" xmlns:xlink="http://www.w3.org/1999/xlink" x="0px" y="0px"
	 viewBox="0 0 60.5 60.5" style="enable-background:new 0 0 60.5 60.5;" xml:space="preserve">
<style type="text/css">
	.st0{fill:none;stroke:#FAB600;stroke-width:4;stroke-miterlimit:10;}
	.st1{fill:none;}
	.st2{fill:#FAB600;}
	.st3{fill:none;stroke:#FAB600;stroke-width:4.6;stroke-linecap:round;stroke-linejoin:round;stroke-miterlimit:10;}
	.st4{fill:none;stroke:#FFFFFF;stroke-width:4.6;stroke-linecap:round;stroke-linejoin:round;stroke-miterlimit:10;}
	.st5{fill:#FFFFFF;}
	.st6{fill:#FFFFFF;stroke:#FAB600;stroke-width:4.6;stroke-linejoin:round;stroke-miterlimit:10;}
	.st7{fill-rule:evenodd;clip-rule:evenodd;fill:#FAB600;}
</style>
<path class="st1" d="M14.8,45.8c-2.6,0-4.8-2.1-4.8-4.8V8.3c0-2.6,2.1-4.8,4.8-4.8h21.2c2.6,0,4.8,2.1,4.8,4.8V41
	c0,2.6-2.1,4.8-4.8,4.8H14.8z"/>
<g>
	<path class="st2" d="M35.9,5c1.8,0,3.3,1.5,3.3,3.3V41c0,1.8-1.5,3.3-3.3,3.3H14.8c-1.8,0-3.3-1.5-3.3-3.3V8.3
		c0-1.8,1.5-3.3,3.3-3.3H35.9 M35.9,2.1H14.8c-3.5,0-6.3,2.8-6.3,6.3V41c0,3.5,2.8,6.3,6.3,6.3h21.2c3.5,0,6.3-2.8,6.3-6.3V8.3
		C42.2,4.9,39.4,2.1,35.9,2.1L35.9,2.1z"/>
</g>
<line class="st3" x1="18.8" y1="9.7" x2="32.2" y2="9.7"/>
<line class="st4" x1="16.3" y1="36" x2="16.3" y2="16.3"/>
<path class="st5" d="M28,58.2c-2.6,0-4.8-2.1-4.8-4.8V20.8c0-2.6,2.1-4.8,4.8-4.8h15.1c0.4,0,0.8,0.2,1,0.4l9.4,9.4
	c0.3,0.3,0.4,0.7,0.4,1v26.6c0,2.6-2.1,4.8-4.8,4.8H28z"/>
<path class="st2" d="M43.1,17.5l9.4,9.4v26.6c0,1.8-1.5,3.3-3.3,3.3H28c-1.8,0-3.3-1.5-3.3-3.3V20.8c0-1.8,1.5-3.3,3.3-3.3H43.1
	 M43.1,14.5H28c-3.5,0-6.3,2.8-6.3,6.3v32.7c0,3.5,2.8,6.3,6.3,6.3h21.2c3.5,0,6.3-2.8,6.3-6.3V26.8c0-0.8-0.3-1.5-0.9-2.1l-9.4-9.4
	C44.7,14.8,43.9,14.5,43.1,14.5L43.1,14.5z"/>
<g>
	<path class="st2" d="M44.2,18.6l6.9,6.9h-3.6c-1.8,0-3.3-1.5-3.3-3.3V18.6 M44.2,15.6c-0.4,0-0.8,0.1-1.1,0.2
		c-1.1,0.5-1.8,1.5-1.8,2.7v3.6c0,3.4,2.8,6.2,6.2,6.2h3.6c1.2,0,2.3-0.7,2.7-1.8c0.5-1.1,0.2-2.4-0.6-3.2l-6.9-6.9
		C45.8,15.9,45,15.6,44.2,15.6L44.2,15.6z"/>
</g>
<line class="st3" x1="31.1" y1="31.8" x2="46.2" y2="31.8"/>
<line class="st3" x1="31.1" y1="37.4" x2="46.2" y2="37.4"/>
<line class="st3" x1="31.1" y1="42.9" x2="46.2" y2="42.9"/>
<line class="st3" x1="31.1" y1="48.5" x2="46.2" y2="48.5"/>
<line class="st4" x1="31.1" y1="21.3" x2="37.1" y2="21.3"/>
</svg>
