<?xml version="1.0" encoding="utf-8"?>
<!-- Generator: Adobe Illustrator 25.0.0, SVG Export Plug-In . SVG Version: 6.00 Build 0)  -->
<svg version="1.1" id="Capa_1" xmlns="http://www.w3.org/2000/svg" xmlns:xlink="http://www.w3.org/1999/xlink" x="0px" y="0px"
	 viewBox="0 0 200 200" style="enable-background:new 0 0 200 200;" xml:space="preserve">
<style type="text/css">
	.st0{fill:#FFFFFF;}
</style>
<g>
	<path class="st0" d="M10.2,172.6c-0.5,5,2.2,9,7.2,11.4c2.9,1.4,2.9,1.4,1.5,4.3c-2.3,4.6-2.3,4.6-6.9,2.3
		c-7.6-3.8-11.7-9.9-11.9-18.4c-0.2-4.9,0-9.9-0.1-14.8c0-1.8,1-2.5,2.4-2.5c4.8,0,9.5,0.1,14.3,0.2c1.6,0,2.3,1.2,2.3,2.7
		c0,4,0,8-0.1,12.1c0,1.9-1.2,2.6-2.9,2.6C14,172.6,12.1,172.6,10.2,172.6z"/>
	<path class="st0" d="M33.7,172.6c0.5,5.5,2.8,9.4,7.6,11.5c2.9,1.3,2.9,1.3,1.6,4.1c-2.4,4.8-2.4,4.8-7.2,2.3
		c-7.1-3.7-11.2-9.4-11.5-17.6c-0.2-4.8-0.1-9.7-0.3-14.5c-0.1-2.2,0.8-3.2,3-3.2c4.3,0.1,8.5,0.1,12.8,0.1c2,0,3,0.8,3,2.9
		c-0.1,3.9-0.1,7.9,0,11.8c0,1.8-0.8,2.6-2.5,2.6C38.1,172.6,36,172.6,33.7,172.6z"/>
	<path class="st0" d="M189.5,27.2c0.2-5.5-2.2-9.4-7.5-11.5c-2.4-1-2.4-1.9-1.3-4c2.7-5,2.6-5,7.6-2.4c7.4,3.9,11,10.1,11.3,18.3
		c0.2,4.8,0,9.5,0.1,14.3c0,1.8-0.7,2.7-2.6,2.7c-4.5-0.1-9,0-13.5,0c-2,0-2.8-0.9-2.8-2.9c0-3.9,0.1-7.7,0-11.6c0-2.1,1-3,3-2.9
		C185.6,27.2,187.5,27.2,189.5,27.2z"/>
	<path class="st0" d="M165.6,27.2c-0.1-5.8-2.7-9.7-7.8-11.6c-2.1-0.8-2.6-1.7-1.3-3.6c0.2-0.3,0.4-0.7,0.6-1.1
		c2.1-4.2,2.1-4.1,6.5-2c7.8,3.8,11.5,10.2,11.8,18.7c0.2,4.7,0,9.3,0.1,14c0,2.1-0.8,3-2.9,3c-4.3-0.1-8.5-0.1-12.8,0
		c-2,0-3.1-0.8-3-2.9c0-3.9,0.1-7.7,0-11.6c0-2.1,1-3,3-2.9C161.7,27.2,163.6,27.2,165.6,27.2z"/>
	<path class="st0" d="M186.3,49.8c-1.7-0.1-3,0.1-4.2-0.3c-2.6-0.9-5.1-0.6-7.9-0.2c-5.1,0.7-10.3,0.5-15.5,0.3
		c-4.5-0.1-7.1-3.1-7.1-7.7c0-3.4,0.1-6.7,0.1-10.1c0-6.2,0.9-7.6,7.3-10c-4.8-1.9-9.6-3.7-8.1-10c-1.4,0-2.3,0-3.2,0
		c-37.2,0-74.5,0-111.7,0c-13.8,0-23.6,9.8-23.6,23.7c0,37.3,0,74.6,0,112c0,0.9,0,1.7,0,2.8c1.7,0,3.1-0.3,4.2,0.1
		c3.1,1.1,6,0.6,9.3,0.1c4.9-0.7,10-0.3,15-0.1c3.9,0.2,6.7,3.1,6.9,7.1c0.1,4.4,0.1,8.9,0,13.3c-0.1,3.3-2,5.5-5.1,6.5
		c-0.6,0.2-1.2,0.4-2.3,0.8c2.1,1,4,1.6,5.4,2.7c1.5,1.2,2.5,2.9,4.2,5c-0.1,0,0.6,0,1.2,0c11,0,22,0,33,0c26.4,0,52.8,0,79.2,0
		c13.2,0,22.9-9.8,22.9-22.9c0-34.9,0-69.9,0-104.8C186.3,55.2,186.3,52.5,186.3,49.8z"/>
</g>
</svg>
