<?xml version="1.0" encoding="utf-8"?>
<!-- Generator: Adobe Illustrator 25.0.0, SVG Export Plug-In . SVG Version: 6.00 Build 0)  -->
<svg version="1.1" id="Capa_1" xmlns="http://www.w3.org/2000/svg" xmlns:xlink="http://www.w3.org/1999/xlink" x="0px" y="0px"
	 viewBox="0 0 60.5 60.5" style="enable-background:new 0 0 60.5 60.5;" xml:space="preserve">
<style type="text/css">
	.st0{fill:none;stroke:#FAB600;stroke-width:4;stroke-miterlimit:10;}
	.st1{fill:none;}
	.st2{fill:#FAB600;}
	.st3{fill:none;stroke:#FAB600;stroke-width:4.6;stroke-linecap:round;stroke-linejoin:round;stroke-miterlimit:10;}
	.st4{fill:none;stroke:#FFFFFF;stroke-width:4.6;stroke-linecap:round;stroke-linejoin:round;stroke-miterlimit:10;}
	.st5{fill:#FFFFFF;}
	.st6{fill:#FFFFFF;stroke:#FAB600;stroke-width:4.6;stroke-linejoin:round;stroke-miterlimit:10;}
	.st7{fill-rule:evenodd;clip-rule:evenodd;fill:#FAB600;}
</style>
<g>
	<path class="st7" d="M57.8,23.6C54.7,10.8,43.6,2,30.3,1.8c-1.8,0.1-3.7,0.2-5.4,0.5C6.2,6.2-3.5,26.8,5.6,43.5
		c0.3,0.5,0.3,0.9,0.3,1.4C4.5,49.2,3.3,53.6,2.2,58C2,58.7,2,58.7,2.7,58.5c4.6-1.3,9.1-2.4,13.7-3.5c0.4-0.1,0.7-0.1,1,0
		c5.9,3,12,3.8,18.5,2.6C51.3,54.7,61.5,38.9,57.8,23.6z M34.3,53.1c-1.3,0.2-2.6,0.4-3.3,0.3c-5,0-9-1.1-12.7-3.3
		c-0.5-0.3-0.9-0.4-1.4-0.2c-2.5,0.6-5,1.3-7.6,1.9c-0.5,0.2-0.6,0-0.5-0.5c0.7-2.3,1.3-4.7,2-7.1c0.2-0.6,0.1-1.2-0.3-1.7
		c-5.1-8.3-4.9-18.6,0.8-26.3c6-8,14.1-11.3,23.8-9.2c9.6,2,15.7,8.2,17.9,17.8C56.2,38,47.4,51,34.3,53.1z"/>
	<path class="st7" d="M37.7,43.5c-1,0.1-2-0.1-2.9-0.4c-6.4-1.9-11.3-5.9-15.3-11.2c-1.5-2-2.9-4.1-3.3-6.7
		c-0.6-2.9,0.3-5.5,2.5-7.5c0.7-0.7,2.9-1,3.8-0.6c0.3,0.2,0.4,0.5,0.6,0.7c0.8,2,1.7,3.9,2.5,5.8c0.1,0.4,0.1,0.8-0.1,1.2
		c-0.4,0.9-1.1,1.6-1.7,2.3c-0.5,0.5-0.5,1-0.2,1.5c2.3,3.9,5.4,6.7,9.6,8.3c0.6,0.2,1.1,0.2,1.4-0.3c0.7-0.8,1.4-1.8,2.1-2.7
		c0.4-0.5,1-0.6,1.6-0.4c1.4,0.6,2.7,1.3,4.1,1.9c0.4,0.2,0.6,0.3,0.9,0.5c1.4,0.7,1.4,0.8,1.2,2.3c-0.2,2.9-2.4,4.4-5,5.2
		C38.8,43.6,38.3,43.6,37.7,43.5z"/>
</g>
</svg>
